<?xml version="1.0" encoding="utf-8"?>
<!-- Generator: Adobe Illustrator 17.1.0, SVG Export Plug-In . SVG Version: 6.00 Build 0)  -->
<!DOCTYPE svg PUBLIC "-//W3C//DTD SVG 1.1//EN" "http://www.w3.org/Graphics/SVG/1.1/DTD/svg11.dtd">
<svg version="1.1" id="Layer_1" xmlns="http://www.w3.org/2000/svg" xmlns:xlink="http://www.w3.org/1999/xlink" x="0px" y="0px"
	 viewBox="0 0 2171 271" enable-background="new 0 0 2171 271" xml:space="preserve">
<g>
	<g>
		<g>
			
				<linearGradient id="SVGID_1_" gradientUnits="userSpaceOnUse" x1="485.2837" y1="74.3833" x2="571.9233" y2="74.3833" gradientTransform="matrix(-1 0 0 1 806.207 0)">
				<stop  offset="0" style="stop-color:#EFB06E"/>
				<stop  offset="1" style="stop-color:#EFD96E"/>
			</linearGradient>
			<polygon fill="url(#SVGID_1_)" points="278.9,121.1 234.3,82.4 320.9,27.7 			"/>
			<g>
				<path d="M280,120c-14.9-12.9-29.7-25.8-44.6-38.8c-0.1,0.8-0.2,1.6-0.3,2.4c28.9-18.2,57.8-36.5,86.6-54.7
					c-0.7-0.7-1.4-1.4-2.1-2.1c-14,31.1-28,62.3-42,93.4c-0.8,1.7,1.8,3.3,2.6,1.5c14-31.1,28-62.3,42-93.4c0.6-1.3-0.7-2.9-2.1-2.1
					c-28.9,18.2-57.8,36.5-86.6,54.7c-0.8,0.5-1.1,1.7-0.3,2.4c14.9,12.9,29.7,25.8,44.6,38.8C279.3,123.4,281.4,121.3,280,120z"/>
			</g>
		</g>
		<g opacity="0.67">
			<polygon fill="#FFFFFF" points="252.9,153.1 208.3,114.4 294.9,59.7 			"/>
		</g>
	</g>
	<g>
		<linearGradient id="SVGID_2_" gradientUnits="userSpaceOnUse" x1="275.614" y1="164.5" x2="315.386" y2="164.5">
			<stop  offset="0" style="stop-color:#EFB06E"/>
			<stop  offset="1" style="stop-color:#EFD96E"/>
		</linearGradient>
		<path fill="url(#SVGID_2_)" d="M315.2,161.2c1,6.3-3.2,12.2-9.5,13.2l-16.8,2.8c-6.3,1-12.2-3.2-13.2-9.5l0,0
			c-1-6.3,3.2-12.2,9.5-13.2l16.8-2.8C308.3,150.7,314.2,154.9,315.2,161.2L315.2,161.2z"/>
		<g>
			<path d="M312.3,162c0.5,4.5-1.4,10.5-6.7,11.4c-2.9,0.5-5.8,1-8.7,1.5c-2.4,0.4-4.8,0.8-7.1,1.2c-5.7,0.9-10-4-11.1-9
				c-2.4-10.4,8.3-11.7,15.4-12.8c2.4-0.4,4.8-0.8,7.1-1.2C306.9,152,311.2,157,312.3,162c0.3,1.4,6.1,0,5.8-1.6
				c-2.9-12.7-15.5-9.9-25-8.3c-9.5,1.6-21.6,3.8-20.3,16.4c1.4,12.9,16.5,9.7,25,8.3c9.5-1.6,21.6-3.8,20.3-16.4
				C318,159.2,312.1,160.3,312.3,162z"/>
		</g>
	</g>
	<g>
		<g>
			<linearGradient id="SVGID_3_" gradientUnits="userSpaceOnUse" x1="7.6221" y1="70.3833" x2="94.2617" y2="70.3833">
				<stop  offset="0" style="stop-color:#EFB06E"/>
				<stop  offset="1" style="stop-color:#EFD96E"/>
			</linearGradient>
			<polygon fill="url(#SVGID_3_)" points="49.6,117.1 94.3,78.4 7.6,23.7 			"/>
			<g>
				<path d="M50.7,118.2c14.9-12.9,29.7-25.8,44.6-38.8c0.8-0.7,0.5-1.9-0.3-2.4C66.1,58.8,37.3,40.6,8.4,22.4
					c-1.4-0.9-2.6,0.8-2.1,2.1c14,31.1,28,62.3,42,93.4c0.8,1.8,3.4,0.2,2.6-1.5c-14-31.1-28-62.3-42-93.4c-0.7,0.7-1.4,1.4-2.1,2.1
					c28.9,18.2,57.8,36.5,86.6,54.7c-0.1-0.8-0.2-1.6-0.3-2.4C78.3,90.2,63.5,103.1,48.6,116C47.1,117.3,49.2,119.4,50.7,118.2z"/>
			</g>
		</g>
		<g opacity="0.67">
			<polygon fill="#FFFFFF" points="75.6,149.1 120.3,110.4 33.6,55.7 			"/>
		</g>
	</g>
	<ellipse fill="#FFFFFF" stroke="#000000" stroke-width="4" cx="164.8" cy="135.5" rx="124.5" ry="127.5"/>
	<g>
		<linearGradient id="SVGID_4_" gradientUnits="userSpaceOnUse" x1="40.333" y1="135.5" x2="289.332" y2="135.5">
			<stop  offset="0" style="stop-color:#EFB06E"/>
			<stop  offset="1" style="stop-color:#EFD96E"/>
		</linearGradient>
		<ellipse fill="url(#SVGID_4_)" cx="164.8" cy="135.5" rx="124.5" ry="127.5"/>
		<g>
			<path d="M39.4,135.8c0.2,44.9,23.5,87.1,62.1,110.4c36.6,22,83,22.5,120.7,3c38.5-20,63.8-59.7,67.7-102.6
				c4.1-44.9-16.4-89.6-52.9-116C202.6,5.7,156,0.7,117,17.4c-40.2,17.2-68.8,54.3-76,97.3C39.9,121.7,39.4,128.7,39.4,135.8
				c0,0.3,1.9,0,1.9-0.5c0.3-46.9,25.7-91,67.3-113.1C151.3-0.6,204.1,6,241.4,36c36.4,29.3,53,77.7,44.9,123.4
				c-8.1,45.8-42.1,84.8-86.7,98.3c-38.3,11.6-80.3,2.3-111.2-22.6c-30-24.1-46.8-61.5-47-99.8C41.3,134.9,39.4,135.2,39.4,135.8z"
				/>
		</g>
	</g>
	<g>
		<g>
			<g>
				<path fill="#FFFFFF" d="M329.8,123c0.6-8.8,4.7-19.7-2.7-27c-3.4-1.6-9-4-11.1,0.9c4,18.1-4.1,33.2-9,49.4
					c-2.1,2.6-6.9,1.5-8.1,5.4c-2,12,20.2,30.7,26.6,15.6c8.2,1.8,19,3.5,23.5-5.7c0-1.2,0-2.4,0.5-3.6"/>
				<g>
					<path d="M331.3,123c0.7-7.5,3-15.2,0.4-22.6c-1.7-4.8-6.8-8.5-12.1-7.8c-2.4,0.3-3.8,1.5-4.9,3.6c-0.5,0.8,0.1,2.2,0.2,3
						c0.7,3.3,0.7,6.7,0.6,10c-0.3,10.5-4.5,20.6-7.9,30.4c-0.6,1.8-1.1,5.6-2.9,6.7c-1.1,0.7-2.6,0.8-3.8,1.4
						c-2.1,1.1-3.3,2.6-3.6,5c-0.6,5.1,2.9,10.3,6,14c6.1,7,18.4,12.3,23.5,1.5c-0.6,0.2-1.1,0.5-1.7,0.7c5.4,1.1,10.8,2,16.2,0.8
						c2.5-0.5,4.7-2,6.6-3.7c2.5-2.4,2.1-4.5,3.1-7.4c0.6-1.8-2.3-2.6-2.9-0.8c-0.7,2.3-0.6,4.1-2.3,6.1c-1.6,1.9-4.1,2.7-6.4,3.2
						c-4.4,0.9-9.2-0.2-13.5-1.1c-0.6-0.1-1.4,0.1-1.7,0.7c-5,10.6-16.8,1.2-21.1-5.1c-2.6-3.8-5-9.9,0.8-11.8
						c4.9-1.6,5-4.8,6.6-9.4c4.2-12.5,8.9-24.7,7.8-38.1c-0.3-3.7-0.8-7.7,4.4-6.4c4,1,5.9,4.1,6.9,7.9c1.6,6.1-0.7,13-1.3,19.2
						C328.2,124.9,331.2,124.9,331.3,123L331.3,123z"/>
				</g>
			</g>
			<g>
				<ellipse fill="#FFFFFF" cx="338.2" cy="144.7" rx="17.3" ry="21"/>
				<g>
					<path fill="#FFFFFF" d="M354,144.7c-0.3,9.3-5.6,19.1-15.8,19.5c-10.2,0.4-15.6-10.9-15.8-19.5c-0.3-9.3,6-19.1,15.8-19.5
						C348.4,124.7,353.8,136.1,354,144.7c0.1,1.9,3.1,1.9,3,0c-0.3-11-6.9-22-18.8-22.5c-11.9-0.5-18.5,12.3-18.8,22.5
						c-0.3,11,7.4,22,18.8,22.5c11.9,0.5,18.5-12.3,18.8-22.5C357.1,142.7,354.1,142.7,354,144.7z"/>
				</g>
			</g>
		</g>
		<g>
			<g>
				<path fill="#1A1A1A" d="M350.6,162.3c1.7-1.3,3.1-3,3.9-5c0.4-1.1,0.6-2.2,0.7-3.4c0-1.4-1-2.5-1.5-3.8c-0.7-1.8-3.6-1-2.9,0.8
					c0.3,0.8,0.7,1.6,1.1,2.4c0.5,0.9,0.2,1.7-0.1,2.6c-0.5,1.8-1.9,3.2-3.3,4.3C347,161.4,349.2,163.5,350.6,162.3L350.6,162.3z"/>
			</g>
		</g>
		<g>
			<g>
				<g>
					<g>
						<path fill="#202020" d="M330.1,136.2c-0.1-0.1-0.3-0.1-0.1-0.1C330.1,136.2,330.2,136.3,330.1,136.2z"/>
						<path fill="#202020" d="M330,145.5c-0.8,0.5-0.2-0.2-0.7,0c0,0,0.4-0.3,0.3-0.3c-0.6,0.4-0.5-0.1-0.2-0.6l0.1-0.1
							c0.1-0.1-0.3,0.2-0.3,0.1c0.1-0.1,0.1-0.1,0.2-0.2c-0.2,0.2-0.1,0-0.3,0.2c0.1-0.1,0.2-0.2,0.3-0.3l-0.3,0.2
							c-0.6,0.5-0.1-0.1-0.4,0.1c0.1,0,0.1-0.1,0.2-0.1c-0.4,0.2-0.5,0-0.7,0.1c0.1-0.1,0.2-0.2,0.3-0.3c-0.3,0.2-0.3,0.3-0.4,0.3
							c0.2-0.2-0.3,0.2-0.2,0l0.1,0c-0.3,0.2,0.1-0.2-0.2,0.1l0.2-0.2c-0.4,0.3,0.2-0.2,0-0.1l-0.1,0.1c-0.1,0.1,0.1-0.1,0-0.1l0,0
							c-0.1,0,0.1-0.2-0.2,0.1c0.2-0.2,0.1-0.1,0.5-0.4c-0.4,0.1-0.5-0.1-0.6-0.2c0.1-0.1,0.1-0.2,0.2-0.3c-0.1,0-0.1,0-0.3,0.1
							c0,0,0.1-0.1,0.2-0.2c0.1-0.1-0.3,0.2-0.2,0.1c0.1-0.1,0.2-0.1,0.3-0.2c-0.3,0.2-0.2,0.1-0.3,0.1c0.1,0,0.1-0.1,0.2-0.1
							c-0.3,0.2,0-0.1-0.2,0l0.2-0.1c0.2-0.2-0.4,0.3-0.3,0.1c0.1,0,0.1-0.1,0.2-0.1c-0.3,0.2-0.3,0.1-0.4,0.1c0,0,0.1-0.1,0.1-0.1
							c-0.1,0,0-0.1-0.2-0.1c0.1-0.1,0.4-0.3,0.3-0.3c-0.4,0.3-0.2,0-0.6,0.4c0-0.1,0.1-0.2,0-0.2c0.1-0.1,0.4-0.3,0.5-0.3l0.2-0.2
							c0.1-0.1,0,0.1,0.1-0.1c0,0-0.2,0.1-0.2,0c-0.2,0.1-0.7,0.4-0.8,0.4c0.2-0.1,0.4-0.3,0.5-0.3l-0.7,0.4c0,0,0.3-0.2,0.2-0.2
							c-0.1,0.1-0.2,0.1-0.2,0.2c0,0-0.1,0,0.2-0.3c0.1-0.1,0.1,0,0.2-0.1c0,0-0.1,0.1-0.2,0l0,0c0-0.1-0.2,0.1-0.4,0.2
							c0,0,0.2-0.2,0.1-0.1c-0.2,0.1-0.3,0.1-0.3,0.1l-0.2-0.6c0,0,0,0,0,0c0.1,0,0.2,0,0.3,0c-0.3-0.1-0.4-0.1-0.6-0.2
							c-0.2,0,0.4,0.1,0.3,0.1c0.3,0-0.4-0.2,0-0.2c0,0-0.3,0-0.2,0c0,0,0.3,0,0.2,0c0.2,0-0.1,0-0.1-0.1c-0.1,0,0.1,0,0.1,0
							c-0.1,0-0.4-0.2-0.2-0.2c-0.1,0-0.4-0.1-0.4-0.1l0.3,0c0.2,0,0-0.1,0.2,0c-0.3-0.1,0.3,0.1,0,0.1c0.2,0-0.4-0.1-0.1-0.1
							c0,0-0.3-0.1-0.1-0.1c0,0,0.4,0,0.4,0c0,0-0.1,0-0.2-0.1l-0.1,0c-0.3,0,0,0-0.3,0c0.2,0-0.1-0.1,0.3,0l0.3,0
							c0,0-0.4,0-0.5-0.1c0,0,0.1,0,0.2,0c-0.5,0,0,0-0.4-0.1c0.2,0,0-0.1,0.4-0.1c-0.2,0-0.3-0.1-0.2-0.1c0,0,0.1,0,0.2,0
							c0.2,0,0,0-0.1,0c0.1,0,0.3,0,0.5-0.1c-0.2,0-0.4,0-0.6,0c0.5,0-0.3-0.1,0.1-0.1c0.1,0,0.3,0,0.4,0c0.5,0-0.4-0.1-0.1-0.1
							l-0.4,0c0.3,0-0.2-0.1,0.2-0.1c-0.2,0,0.1-0.1-0.3,0c0.1,0,0.1,0,0.1,0l0.1-0.5c0.1,0-0.1-0.3,0.5-0.1c-0.1,0,0,0-0.2-0.1
							c-0.2-0.1,0.1,0.1,0,0c0,0-0.1-0.1-0.2-0.1c0.1,0,0.1,0,0.5,0.2c0.3,0-0.6-0.4-0.4-0.4c0.2,0.1,0.2,0.1,0.2,0.1l-0.3-0.2
							c0.1,0,0.4,0.1,0.6,0.3c0,0,0-0.1-0.2-0.2l0.3,0.1c-0.3-0.1-0.2-0.1-0.2-0.2l0.1,0c0.1,0.1,0.1,0,0,0
							c-0.2-0.1-0.2-0.1-0.3-0.1c-0.1-0.1-0.1-0.1-0.2-0.2c0.3,0.1,0.2,0.1,0.2,0c0.1,0-0.2-0.2-0.2-0.2c0.1,0.1,0,0,0.2,0.1
							c0,0-0.1-0.1,0,0c0.1,0,0.3,0.2,0.2,0c-0.1-0.1-0.5-0.3-0.3-0.2c0.1,0,0.2,0.1,0.2,0.2l0.2,0l-0.2-0.1c0.1,0,0.1,0,0.1,0.1
							c-0.2-0.2,0-0.1-0.3-0.3c0,0,0.2,0.1,0.2,0l0,0c0.1,0.1,0.1,0-0.1-0.1l0,0c0,0,0-0.1-0.1-0.2c0.2,0.1,0.9,0.5,0.6,0.3
							c0,0-0.4-0.3-0.5-0.4c0.2,0-0.1-0.3,0.3-0.1c-0.1-0.1-0.1-0.1-0.2-0.2c0.1,0-0.1-0.4,0.3-0.1c0.1,0.1,0.2,0.2,0.3,0.3
							c-0.2-0.2,0.2,0.1-0.1-0.1c-0.2-0.1-0.3-0.2-0.4-0.3c-0.1-0.1,0-0.2,0.2-0.1c-0.1-0.1-0.1-0.1-0.2-0.2
							c0.3,0.2,0.4,0.2,0.3,0.1l-0.2-0.1l0.2,0.1c-0.1-0.1-0.4-0.3-0.2-0.2c0.1,0.1,0.1,0.1,0.2,0.1c-0.1-0.1-0.4-0.4-0.2-0.3
							l0.3,0.2c0,0-0.2-0.2-0.3-0.2c0.2,0.1,0.2,0.1,0.5,0.2c-0.5-0.5-0.4-0.7-0.3-0.7l0.1,0.1c0.1,0.1-0.2-0.2-0.1-0.1
							c0.1,0.1,0.3,0.2,0.4,0.4c0.2,0.1-0.2-0.2-0.2-0.3c-0.2-0.1,0.1,0.1-0.1-0.1c-0.1-0.1,0.2,0.1-0.1-0.2
							c0.1,0.1,0.3,0.2,0.4,0.3l-0.1-0.1c0.3,0.2,0.5,0.5,0.9,0.8l0-0.1c0.3,0.2,0.3,0.3,0.4,0.3c-0.1-0.1-0.5-0.5-0.6-0.5
							c0-0.1-0.6-0.5-0.6-0.6c0.2,0.1,0,0.1,0.2,0.2c0.2,0.2-0.1-0.1,0-0.1c-0.1-0.1-0.4-0.3-0.4-0.4c0.1,0.1,0.2,0.2,0.3,0.2
							c-0.2-0.1-0.3-0.3-0.4-0.3c-0.4-0.3,0.1,0-0.1-0.2c0.3,0.2,0.6,0.5,0.7,0.6c-0.2-0.2-0.3-0.3-0.7-0.6c0.1,0,0.3,0.2,0.4,0.3
							c0.2,0.1-0.4-0.4,0.1,0l-0.2-0.2c0.1,0.1,0.2,0.1,0.3,0.2c0,0-0.3-0.3,0.1,0c0,0,0-0.1-0.3-0.2c-0.2-0.1,0.2,0.2-0.2-0.1
							c0.3,0.2,0-0.1-0.1-0.1l0.1,0.1c-0.1-0.1,0,0-0.2-0.2c0.1,0.1,0.2,0.1,0.2,0.2l-0.2-0.2c-0.1-0.1,0.4,0.3,0.4,0.2l0.2,0.2
							c0,0,0.2,0.1,0.1,0c-0.2-0.2-0.4-0.4-0.6-0.5c-0.1-0.1,0.2,0.2,0,0l0.2,0.2c0.1,0.1,0.3,0.2,0.4,0.2c-0.1-0.1-0.4-0.3-0.5-0.4
							c0,0,0.1,0.1,0.3,0.2c-0.1-0.1-0.2-0.2-0.3-0.3c0.1,0.1,0.4,0.2,0.6,0.3l0.3,0.3l0,0c0.3,0.2,0.2,0.1,0.5,0.4
							c0.1,0,0-0.1-0.1-0.1c-0.5-0.3-0.6-0.5-1.1-0.8c-0.1-0.1,1.1,0.7,0.4,0.2c-0.1-0.1-0.4-0.3-0.3-0.2c0.1,0-0.4-0.3-0.2-0.2
							c0.2,0.1,0.5,0.3,0.7,0.5c-0.1-0.1-0.1-0.1-0.1,0c0.2,0.1,0.4,0.3,0.5,0.3c0,0,0-0.1-0.3-0.2c-0.3-0.2,0,0-0.2-0.1
							c-0.1-0.1,0.3,0.2-0.1-0.1c0,0-0.2-0.1-0.4-0.2l-0.1-0.1l0.2,0.1c0.1,0-0.3-0.2-0.2-0.2l0.3,0.2c0.3,0.2-0.2,0,0.3,0.3
							c0,0-0.2-0.2-0.1-0.1c0,0,0,0,0.1,0.1c0,0,0.7,0.4,0.3,0.1c-0.1-0.1-0.2-0.1-0.3-0.2c0-0.1-0.2-0.2-0.3-0.2
							c0.4,0.2,0,0,0.4,0.2c-0.2-0.1-0.2-0.1,0.1,0.1c0.4,0.2-0.1,0,0.3,0.2c0,0,0.4,0.2,0.7,0.4c0,0-0.1-0.1-0.1-0.1
							c-0.3-0.1-0.3-0.1-0.5-0.3c0.1,0,0-0.1-0.3-0.2c0.1,0.1,0.4,0.2,0.4,0.2c-0.1-0.1,0-0.1,0.1-0.1c-0.4-0.2-0.1-0.1-0.5-0.2
							c-0.1,0-0.4-0.2-0.6-0.3c0,0,0.2,0.1,0.3,0.1c-0.2-0.1,0.4,0.2,0,0c0.1,0.1,0.5,0.2,0.9,0.4c-0.2-0.1,0.2,0.1,0.3,0.1
							c-0.2-0.1-0.3-0.2-0.4-0.2c0.4,0.1,0.1-0.1,0.1-0.2c0.2,0,0.6,0.2,0.7,0.2c0,0-0.4-0.1-0.2-0.1l0.1,0c-0.1,0,0.3,0-0.3-0.2
							l0.4,0.2c0,0-0.1,0-0.1-0.1c0.1,0,0.3,0.1,0.4,0.1c0.3,0.1,0-0.1,0-0.1l-0.3-0.1c-0.2-0.1,0.1-0.1,0-0.2l0.3,0.1l-0.1-0.1
							c0.2,0.1,0.4,0.1,0.2,0l0.6,0.3c-0.2,0-0.3-0.1-0.6-0.2c-0.2-0.1-0.2,0,0.1,0.1c0,0,0,0-0.1-0.1c0.4,0.1,0.3,0.1,0.6,0.2
							c0,0,0.1,0,0,0c0.2,0.1,0.2,0.1,0.2,0.1c-0.1-0.1-0.2-0.1-0.3-0.1c0.3,0.1,0.4,0.2,0.3,0.2c-0.4-0.1,0.2,0.1,0.1,0.2
							c-0.3-0.1-0.6-0.2-0.7-0.3c-0.2,0,0,0-0.2,0c0.2,0.1,0.6,0.2,0.7,0.3l-0.2-0.1c0.1,0.1,0.5,0.2,0.4,0.2
							c-0.1,0-0.2,0.1-0.3,0.2l-0.2-0.1c0.5,0.2,0.1,0.2,0.3,0.3c-0.3,0,0.1,0.3-0.3,0.1c0.1,0.2,0.2,0.4,0,0.5l-0.3-0.2
							c0.2,0.2-0.2-0.1-0.2,0c0.3,0.1,0.3,0.2,0.5,0.4c-0.3-0.1-0.1,0.1,0.1,0.3l-0.2-0.1c0.3,0.3,0,0.2-0.1,0.2
							c-0.1-0.1-0.3-0.2-0.3-0.1c0.3,0.3,0.3,0.3,0.4,0.5c0,0-0.1,0-0.3,0c0.3,0.5,0,0.4,0.1,0.7l-0.2-0.2c0.4,0.5-0.2,0.3,0,0.6
							l-0.4-0.3c-0.1-0.1,0,0.1,0.3,0.4c-0.1-0.1,0.1,0.2-0.2,0c-0.1,0,0.2,0.2,0.2,0.2c-0.2-0.1-0.2,0-0.1,0.1l0,0
							c-0.1-0.1-0.2-0.2-0.3-0.2c0.1,0.1-0.2,0,0.3,0.3c-0.3-0.1,0.1,0.3-0.3,0.1c0.1,0.1,0.2,0.1,0.2,0.2c0,0-0.3-0.1-0.1,0.1
							c-0.1,0-0.2-0.2-0.2-0.1c0,0,0.2,0.1,0.2,0.2c0.2,0.2-0.3,0-0.3,0.1c0.2,0.3,0.1,0.3,0,0.4l-0.1,0c0.3,0.1,0,0-0.1,0.1
							c0-0.2,0.1-0.5,0.1-0.7c0,0,0,0,0.3,0.1c-0.1,0-0.1,0.1-0.3,0.1c0.3,0.1-0.3,0.1,0.1,0.2c0,0,0,0-0.1,0
							c-0.3,0.1,0.1,0.1-0.2,0.2c0,0-0.1,0-0.2,0c-0.2,0,0.5,0.1-0.1,0.1c0,0,0.3,0,0.3,0c-0.2,0.2,0.1,0.4,0.2,0.6
							c-0.3,0.1-1,0-0.5,0.1c-0.1,0,0.2,0,0.1,0c0.2,0.1-0.6,0-0.3,0.1c0.3,0,0.2,0,0.4,0c-0.2,0.1-0.5,0.1-0.3,0.1l-0.2,0
							c0.5,0.1,0.2,0.2,0.8,0.3c0,0.1,0,0.1,0.1,0.2c-0.1-0.5-0.2-1-0.4-1.4c0.3,0.1,0.7,0.2,0.9,0.4c0.1,0.3,0.5,0.4,0.5,0.8
							c-0.3,0.4-0.3,0.4-0.1,0.3c-0.1,0-0.1,0.1-0.1,0.1c0.3-0.3,0.1,0,0.3-0.2c0,0.1,0.2,0.2,0.3,0.3c0,0-0.3,0.2-0.3,0.2l0.2-0.2
							l-0.1,0.1c0.1,0,0.2-0.1,0.3-0.2c0.5,0,0.1,0.8,0.4,1c-0.1,0.2,0.1,0.2,0.2,0.2c-0.2,0.5-0.3,1,0.1,0.9
							C331,144.7,330.3,145.4,330,145.5z"/>
						<path fill="#202020" d="M330.1,136.3c-0.2-0.1-0.3-0.1-0.5-0.2C329.8,136.2,330,136.2,330.1,136.3z"/>
						<path fill="#202020" d="M327.9,136.3c0.1,0-0.1,0-0.1,0c0,0-0.2-0.1-0.1,0C327.8,136.3,327.9,136.3,327.9,136.3z"/>
						<path fill="#202020" d="M327.8,136.4c-0.2-0.1-0.3-0.2-0.3-0.2L327.8,136.4z"/>
						<path fill="#202020" d="M327.1,136.1c-0.1-0.1-0.2-0.1-0.2-0.1C327,136,327.1,136,327.1,136.1z"/>
						<path fill="#202020" d="M327.5,136.3c0,0-0.1,0-0.2-0.1C327.4,136.3,327.2,136.1,327.5,136.3z"/>
						<path fill="#202020" d="M326.9,136.3C326.9,136.3,327,136.4,326.9,136.3C326.9,136.3,326.7,136.1,326.9,136.3z"/>
						<path fill="#202020" d="M327,136.5C327,136.5,327,136.5,327,136.5c-0.1,0-0.2-0.1-0.2-0.1L327,136.5z"/>
						<polygon fill="#202020" points="325.4,140.7 325.3,140.7 325.5,140.7 						"/>
						<path fill="#202020" d="M325.3,142.1c0.1,0-0.2,0-0.2,0C325.1,142.1,325.3,142.2,325.3,142.1z"/>
						<polygon fill="#202020" points="326.8,143.2 326.8,143.2 327.1,143 						"/>
					</g>
				</g>
			</g>
			<g>
				<g>
					<path fill="#FFFFFF" d="M329.8,125.2c-0.5,0.7-1.4,2-2.4,3.9c-0.4,2.7,1,4.7,2.1,6.9"/>
					<g>
						<path d="M328.5,124.5c-1.2,1.6-2.5,3.3-2.7,5.4c-0.2,2.5,1.3,4.9,2.4,7c0.9,1.7,3.5,0.2,2.6-1.5c-0.9-1.8-1.9-3.4-2-5.4
							c0-1.1,1.6-2.9,2.3-3.8C332.2,124.4,329.6,122.9,328.5,124.5L328.5,124.5z"/>
					</g>
				</g>
				<g>
					<g>
						<path fill="#FFFFFF" d="M353.2,135.1c3,3.8,3.7,11.8-0.9,14.4"/>
						<g>
							<path d="M351.9,135.9c2.4,3.3,3.7,9.7-0.4,12.3c-1.6,1-0.1,3.6,1.5,2.6c5.4-3.5,4.9-11.7,1.4-16.4
								C353.4,132.8,350.7,134.3,351.9,135.9L351.9,135.9z"/>
						</g>
					</g>
					<g>
						<path fill="#FFFFFF" d="M352.3,149.5c-0.1-0.3-0.2-0.6-0.3-0.9c-5.6-5.2-15.7-7-22.2-2.7"/>
						<g>
							<path d="M353.7,149.1c-1.1-3.8-6.7-5.6-10.2-6.5c-4.9-1.3-10.2-0.6-14.5,2c-1.7,1-0.1,3.6,1.5,2.6c3.4-2.1,7-2.5,10.9-2
								c2.4,0.3,8.5,1.9,9.4,4.7C351.4,151.7,354.3,150.9,353.7,149.1L353.7,149.1z"/>
						</g>
					</g>
					<g>
						<path fill="#FFFFFF" d="M349.6,161.3c-4.4-7-12.8-6.6-19.8-4.6c-1.3-0.3-2.5-1.6-3.1-2.7c-0.1-1.2,0-2.4-0.1-3.6
							c0.9-1.2,2.1-2.4,3.2-3.6"/>
						<g>
							<path d="M350.9,160.5c-2.5-3.5-5.9-5.9-10.2-6.4c-2.2-0.2-4.3-0.2-6.5,0.1c-1.2,0.2-2.4,0.4-3.6,0.7c-2.3-1.1-3-2.6-2-4.6
								c0.7-0.8,1.5-1.6,2.2-2.4c1.3-1.4-0.8-3.5-2.1-2.1c-2.2,2.3-3.7,3.3-3.6,6.5c0.1,2.9,1.2,4.4,3.9,5.7c1.8,0.9,6-0.9,8-1.1
								c4.6-0.3,8.6,1.3,11.3,5.1C349.4,163.6,352,162.1,350.9,160.5L350.9,160.5z"/>
						</g>
					</g>
					<g>
						<path fill="#FFFFFF" d="M353.2,135.1c-7.2-5.3-16.3-2.2-23.7,0.9"/>
						<g>
							<path d="M353.9,133.8c-7.9-5.2-16.7-2.6-24.8,0.7c-1.8,0.7-1,3.6,0.8,2.9c7.3-3,15.3-5.8,22.5-1
								C354,137.5,355.5,134.9,353.9,133.8L353.9,133.8z"/>
						</g>
					</g>
					<g>
						<path fill="#FFFFFF" d="M329.8,125.2c7.3-6.2,25.2-7.5,25.6,5.4c-0.8,1.5-0.8,3-2.3,4.5"/>
						<g>
							<path d="M330.9,126.3c4-3.2,9.3-4.4,14.3-4c6.5,0.4,11,6.4,6.7,12.1c-1.2,1.5,1.4,3,2.6,1.5c4.6-6.1,1.5-13.1-5.2-15.8
								c-6.6-2.6-15.2-0.1-20.5,4.1C327.2,125.4,329.4,127.5,330.9,126.3L330.9,126.3z"/>
						</g>
					</g>
				</g>
			</g>
		</g>
	</g>
	<g opacity="0.2">
		<path fill="#FFFFFF" d="M47.4,135.8c0,69.3,53.2,125.5,118.7,125.5c65.6,0,118.7-56.2,118.7-125.5c0-69.3-53.2-125.5-118.7-125.5
			C100.5,10.3,47.4,66.5,47.4,135.8z"/>
	</g>
	<ellipse fill="#FFFFFF" stroke="#000000" stroke-width="3" cx="164.8" cy="109.7" rx="57" ry="81.3"/>
	<g>
		<g>
			<g>
				<g>
					<path fill="#202020" d="M164.8,48c-1.2,11.6-1.9,19.5-1.9,33.4c0,7.5,0,30.2,0,50.9c0,10.4,0,20.3,0,27.6c0,3.7,0,6.7,0,8.8
						c0,1,0,1.9,0,2.4c0,0.3,0,0.5,0,0.6c0,0.1,0,0.1,0,0.2c0,0,0,0,0,0l0,0v0v0c1.6,0,2.9,0,3.9,0v0c0,0,0-75.5,0-90.6
						C166.8,67.5,166.1,59.6,164.8,48c-1.2,11.6-1.9,19.5-1.9,33.4c0,15.1,0,90.6,0,90.6v0c1,0,2.3,0,3.9,0v0v0l0,0c0,0,0,0,0,0
						c0,0,0-0.1,0-0.2c0-0.1,0-0.4,0-0.6c0-0.6,0-1.4,0-2.4c0-2.1,0-5.1,0-8.8c0-7.3,0-17.2,0-27.6c0-20.8,0-43.4,0-50.9
						C166.8,67.5,166.1,59.6,164.8,48z"/>
				</g>
			</g>
		</g>
	</g>
	<g>
		<path d="M132.6,218c0,0,0.9,0.7,2.5,2c0.4,0.3,0.8,0.7,1.3,1.1c0.5,0.3,1,0.7,1.6,1.1c0.6,0.4,1.2,0.8,1.8,1.3
			c0.6,0.5,1.4,0.8,2.1,1.3c0.7,0.4,1.5,0.9,2.3,1.3c0.8,0.4,1.7,0.8,2.6,1.2c0.4,0.2,0.9,0.4,1.3,0.6c0.5,0.2,0.9,0.3,1.4,0.5
			c1,0.3,1.9,0.7,2.9,1.1c2,0.5,4.1,1.2,6.3,1.5c2.2,0.5,4.4,0.6,6.6,0.8c2.2,0,4.5,0.1,6.7-0.2c2.2-0.1,4.3-0.6,6.4-0.9
			c1-0.3,2-0.6,3-0.8c0.5-0.1,1-0.2,1.5-0.4c0.5-0.2,0.9-0.3,1.4-0.5c0.9-0.3,1.8-0.7,2.7-1c0.8-0.4,1.6-0.8,2.4-1.1
			c0.8-0.4,1.5-0.7,2.2-1.1c0.7-0.4,1.3-0.8,1.9-1.1c0.6-0.3,1.2-0.7,1.7-1c0.5-0.3,1-0.7,1.4-0.9c1.7-1.1,2.6-1.8,2.6-1.8
			s-0.8,0.8-2.3,2.3c-0.4,0.4-0.8,0.7-1.2,1.2c-0.5,0.4-1,0.8-1.6,1.2c-0.6,0.4-1.2,0.9-1.8,1.4c-0.6,0.5-1.4,0.9-2.1,1.3
			c-0.8,0.5-1.5,0.9-2.4,1.4c-0.9,0.4-1.8,0.8-2.7,1.2c-0.5,0.2-0.9,0.4-1.4,0.6c-0.5,0.2-1,0.3-1.5,0.5c-1,0.4-2.1,0.7-3.1,1
			c-2.2,0.4-4.4,1.1-6.7,1.3c-2.3,0.3-4.7,0.3-7.1,0.3c-2.4-0.2-4.7-0.4-7-0.9c-2.3-0.3-4.5-1.2-6.6-1.8c-1-0.4-2-0.9-3-1.3
			c-0.5-0.2-1-0.4-1.4-0.7c-0.5-0.3-0.9-0.5-1.3-0.8c-0.9-0.5-1.7-1-2.6-1.5c-0.8-0.6-1.5-1.1-2.2-1.6c-0.7-0.5-1.4-1-2-1.5
			c-0.6-0.5-1.2-1.1-1.7-1.6c-0.5-0.5-1-0.9-1.5-1.4c-0.4-0.5-0.8-0.9-1.1-1.3C133.4,218.9,132.6,218,132.6,218z"/>
	</g>
</g>
<g>
	<g>
		
			<linearGradient id="SVGID_5_" gradientUnits="userSpaceOnUse" x1="34.2402" y1="74.3833" x2="120.8798" y2="74.3833" gradientTransform="matrix(-1 0 0 1 806.207 0)">
			<stop  offset="0" style="stop-color:#F16923"/>
			<stop  offset="1" style="stop-color:#CE862B"/>
		</linearGradient>
		<polygon fill="url(#SVGID_5_)" points="730,121.1 685.3,82.4 772,27.7 		"/>
		<g>
			<path d="M731,120c-14.9-12.9-29.7-25.8-44.6-38.8c-0.1,0.8-0.2,1.6-0.3,2.4C715,65.4,743.8,47.2,772.7,29
				c-0.7-0.7-1.4-1.4-2.1-2.1c-14,31.1-28,62.3-42,93.4c-0.8,1.7,1.8,3.3,2.6,1.5c14-31.1,28-62.3,42-93.4c0.6-1.3-0.7-2.9-2.1-2.1
				c-28.9,18.2-57.8,36.5-86.6,54.7c-0.8,0.5-1.1,1.7-0.3,2.4c14.9,12.9,29.7,25.8,44.6,38.8C730.3,123.4,732.5,121.3,731,120z"/>
		</g>
	</g>
	<g opacity="0.67">
		<polygon fill="#FFFFFF" points="704,153.1 659.3,114.4 746,59.7 		"/>
	</g>
	<g>
		<linearGradient id="SVGID_6_" gradientUnits="userSpaceOnUse" x1="726.6575" y1="164.5" x2="766.4295" y2="164.5">
			<stop  offset="0" style="stop-color:#F16923"/>
			<stop  offset="1" style="stop-color:#CE862B"/>
		</linearGradient>
		<path fill="url(#SVGID_6_)" d="M766.3,161.2c1,6.3-3.2,12.2-9.5,13.2l-16.8,2.8c-6.3,1-12.2-3.2-13.2-9.5l0,0
			c-1-6.3,3.2-12.2,9.5-13.2l16.8-2.8C759.3,150.7,765.2,154.9,766.3,161.2L766.3,161.2z"/>
		<g>
			<path d="M765.3,161.5c0.6,6-2.5,11.6-8.9,12.7c-2.9,0.5-5.8,1-8.7,1.5c-2.4,0.4-4.8,0.8-7.1,1.2c-6.3,1.1-11.4-3.4-12.7-9.3
				c-2.5-11.2,9.9-12.9,17.7-14.1c2.4-0.4,4.8-0.8,7.1-1.2C758.9,151.1,764,155.6,765.3,161.5c0.1,0.5,2,0,1.9-0.5
				c-2.8-12.2-14.3-9.5-23.4-8c-8.8,1.5-19.3,3.4-18,15.1c1.3,12.4,15.3,9.4,23.4,8c8.8-1.5,19.3-3.4,18-15.1
				C767.2,160.5,765.2,160.9,765.3,161.5z"/>
		</g>
	</g>
	<g>
		<linearGradient id="SVGID_7_" gradientUnits="userSpaceOnUse" x1="458.6656" y1="70.3833" x2="545.3052" y2="70.3833">
			<stop  offset="0" style="stop-color:#F16923"/>
			<stop  offset="1" style="stop-color:#CE862B"/>
		</linearGradient>
		<polygon fill="url(#SVGID_7_)" points="500.7,117.1 545.3,78.4 458.7,23.7 		"/>
		<g>
			<path d="M501.7,118.2c14.9-12.9,29.7-25.8,44.6-38.8c0.8-0.7,0.5-1.9-0.3-2.4c-28.9-18.2-57.8-36.5-86.6-54.7
				c-1.4-0.9-2.6,0.8-2.1,2.1c14,31.1,28,62.3,42,93.4c0.8,1.8,3.4,0.2,2.6-1.5c-14-31.1-28-62.3-42-93.4c-0.7,0.7-1.4,1.4-2.1,2.1
				c28.9,18.2,57.8,36.5,86.6,54.7c-0.1-0.8-0.2-1.6-0.3-2.4c-14.9,12.9-29.7,25.8-44.6,38.8C498.2,117.3,500.3,119.4,501.7,118.2z"
				/>
		</g>
	</g>
	<g opacity="0.67">
		<polygon fill="#FFFFFF" points="526.7,149.1 571.3,110.4 484.7,55.7 		"/>
	</g>
	<ellipse fill="#FFFFFF" stroke="#000000" stroke-width="4" cx="615.9" cy="135.5" rx="124.5" ry="127.5"/>
	<g>
		<linearGradient id="SVGID_8_" gradientUnits="userSpaceOnUse" x1="491.3765" y1="135.5" x2="740.3755" y2="135.5">
			<stop  offset="0" style="stop-color:#F16923"/>
			<stop  offset="1" style="stop-color:#CE862B"/>
		</linearGradient>
		<ellipse fill="url(#SVGID_8_)" cx="615.9" cy="135.5" rx="124.5" ry="127.5"/>
		<g>
			<path d="M490.4,135.8c0.2,44.9,23.5,87.1,62.1,110.4c36.6,22,83,22.5,120.7,3c38.5-20,63.8-59.7,67.7-102.6
				c4.1-44.9-16.4-89.6-52.9-116C653.6,5.7,607,0.7,568.1,17.4c-40.2,17.2-68.8,54.3-76,97.3C490.9,121.7,490.4,128.7,490.4,135.8
				c0,0.3,1.9,0,1.9-0.5c0.3-46.9,25.7-91,67.3-113.1C602.3-0.6,655.2,6,692.4,36c36.4,29.3,53,77.7,44.9,123.4
				c-8.1,45.8-42.1,84.8-86.7,98.3c-38.3,11.6-80.3,2.3-111.2-22.6c-30-24.1-46.8-61.5-47-99.8C492.3,134.9,490.4,135.2,490.4,135.8
				z"/>
		</g>
	</g>
	<g>
		<g>
			<g>
				<path fill="#FFFFFF" d="M780.9,123c0.6-8.8,4.7-19.7-2.7-27c-3.4-1.6-9-4-11.1,0.9c4,18.1-4.1,33.2-9,49.4
					c-2.1,2.6-6.9,1.5-8.1,5.4c-2,12,20.2,30.7,26.6,15.6c8.2,1.8,19,3.5,23.5-5.7c0-1.2,0-2.4,0.5-3.6"/>
				<g>
					<path d="M782.4,123c0.7-7.5,3-15.2,0.4-22.6c-1.7-4.8-6.8-8.5-12.1-7.8c-2.4,0.3-3.8,1.5-4.9,3.6c-0.5,0.8,0.1,2.2,0.2,3
						c0.7,3.3,0.7,6.7,0.6,10c-0.3,10.5-4.5,20.6-7.9,30.4c-0.6,1.8-1.1,5.6-2.9,6.7c-1.1,0.7-2.6,0.8-3.8,1.4
						c-2.1,1.1-3.3,2.6-3.6,5c-0.6,5.1,2.9,10.3,6,14c6.1,7,18.4,12.3,23.5,1.5c-0.6,0.2-1.1,0.5-1.7,0.7c5.4,1.1,10.8,2,16.2,0.8
						c2.5-0.5,4.7-2,6.6-3.7c2.5-2.4,2.1-4.5,3.1-7.4c0.6-1.8-2.3-2.6-2.9-0.8c-0.7,2.3-0.6,4.1-2.3,6.1c-1.6,1.9-4.1,2.7-6.4,3.2
						c-4.4,0.9-9.2-0.2-13.5-1.1c-0.6-0.1-1.4,0.1-1.7,0.7c-5,10.6-16.8,1.2-21.1-5.1c-2.6-3.8-5-9.9,0.8-11.8
						c4.9-1.6,5-4.8,6.6-9.4c4.2-12.5,8.9-24.7,7.8-38.1c-0.3-3.7-0.8-7.7,4.4-6.4c4,1,5.9,4.1,6.9,7.9c1.6,6.1-0.7,13-1.3,19.2
						C779.2,124.9,782.2,124.9,782.4,123L782.4,123z"/>
				</g>
			</g>
			<g>
				<ellipse fill="#FFFFFF" cx="789.2" cy="144.7" rx="17.3" ry="21"/>
				<g>
					<path fill="#FFFFFF" d="M805,144.7c-0.3,9.3-5.6,19.1-15.8,19.5c-10.2,0.4-15.6-10.9-15.8-19.5c-0.3-9.3,6-19.1,15.8-19.5
						C799.4,124.7,804.8,136.1,805,144.7c0.1,1.9,3.1,1.9,3,0c-0.3-11-6.9-22-18.8-22.5c-11.9-0.5-18.5,12.3-18.8,22.5
						c-0.3,11,7.4,22,18.8,22.5c11.9,0.5,18.5-12.3,18.8-22.5C808.1,142.7,805.1,142.7,805,144.7z"/>
				</g>
			</g>
		</g>
		<g>
			<g>
				<path fill="#1A1A1A" d="M801.7,162.3c1.7-1.3,3.1-3,3.9-5c0.4-1.1,0.6-2.2,0.7-3.4c0-1.4-1-2.5-1.5-3.8c-0.7-1.8-3.6-1-2.9,0.8
					c0.3,0.8,0.7,1.6,1.1,2.4c0.5,0.9,0.2,1.7-0.1,2.6c-0.5,1.8-1.9,3.2-3.3,4.3C798.1,161.4,800.2,163.5,801.7,162.3L801.7,162.3z"
					/>
			</g>
		</g>
		<g>
			<g>
				<g>
					<g>
						<path fill="#202020" d="M781.1,136.2c-0.1-0.1-0.3-0.1-0.1-0.1C781.2,136.2,781.3,136.3,781.1,136.2z"/>
						<path fill="#202020" d="M781.1,145.5c-0.8,0.5-0.2-0.2-0.7,0c0,0,0.4-0.3,0.3-0.3c-0.6,0.4-0.5-0.1-0.2-0.6l0.1-0.1
							c0.1-0.1-0.3,0.2-0.3,0.1c0.1-0.1,0.1-0.1,0.2-0.2c-0.2,0.2-0.1,0-0.3,0.2c0.1-0.1,0.2-0.2,0.3-0.3l-0.3,0.2
							c-0.6,0.5-0.1-0.1-0.4,0.1c0.1,0,0.1-0.1,0.2-0.1c-0.4,0.2-0.5,0-0.7,0.1c0.1-0.1,0.2-0.2,0.3-0.3c-0.3,0.2-0.3,0.3-0.4,0.3
							c0.2-0.2-0.3,0.2-0.2,0l0.1,0c-0.3,0.2,0.1-0.2-0.2,0.1l0.2-0.2c-0.4,0.3,0.2-0.2,0-0.1l-0.1,0.1c-0.1,0.1,0.1-0.1,0-0.1l0,0
							c-0.1,0,0.1-0.2-0.2,0.1c0.2-0.2,0.1-0.1,0.5-0.4c-0.4,0.1-0.5-0.1-0.6-0.2c0.1-0.1,0.1-0.2,0.2-0.3c-0.1,0-0.1,0-0.3,0.1
							c0,0,0.1-0.1,0.2-0.2c0.1-0.1-0.3,0.2-0.2,0.1c0.1-0.1,0.2-0.1,0.3-0.2c-0.3,0.2-0.2,0.1-0.3,0.1c0.1,0,0.1-0.1,0.2-0.1
							c-0.3,0.2,0-0.1-0.2,0l0.2-0.1c0.2-0.2-0.4,0.3-0.3,0.1c0.1,0,0.1-0.1,0.2-0.1c-0.3,0.2-0.3,0.1-0.4,0.1c0,0,0.1-0.1,0.1-0.1
							c-0.1,0,0-0.1-0.2-0.1c0.1-0.1,0.4-0.3,0.3-0.3c-0.4,0.3-0.2,0-0.6,0.4c0-0.1,0.1-0.2,0-0.2c0.1-0.1,0.4-0.3,0.5-0.3l0.2-0.2
							c0.1-0.1,0,0.1,0.1-0.1c0,0-0.2,0.1-0.2,0c-0.2,0.1-0.7,0.4-0.8,0.4c0.2-0.1,0.4-0.3,0.5-0.3l-0.7,0.4c0,0,0.3-0.2,0.2-0.2
							c-0.1,0.1-0.2,0.1-0.2,0.2c0,0-0.1,0,0.2-0.3c0.1-0.1,0.1,0,0.2-0.1c0,0-0.1,0.1-0.2,0l0,0c0-0.1-0.2,0.1-0.4,0.2
							c0,0,0.2-0.2,0.1-0.1c-0.2,0.1-0.3,0.1-0.3,0.1l-0.2-0.6c0,0,0,0,0,0c0.1,0,0.2,0,0.3,0c-0.3-0.1-0.4-0.1-0.6-0.2
							c-0.2,0,0.4,0.1,0.3,0.1c0.3,0-0.4-0.2,0-0.2c0,0-0.3,0-0.2,0c0,0,0.3,0,0.2,0c0.2,0-0.1,0-0.1-0.1c-0.1,0,0.1,0,0.1,0
							c-0.1,0-0.4-0.2-0.2-0.2c-0.1,0-0.4-0.1-0.4-0.1l0.3,0c0.2,0,0-0.1,0.2,0c-0.3-0.1,0.3,0.1,0,0.1c0.2,0-0.4-0.1-0.1-0.1
							c0,0-0.3-0.1-0.1-0.1c0,0,0.4,0,0.4,0c0,0-0.1,0-0.2-0.1l-0.1,0c-0.3,0,0,0-0.3,0c0.2,0-0.1-0.1,0.3,0l0.3,0
							c0,0-0.4,0-0.5-0.1c0,0,0.1,0,0.2,0c-0.5,0,0,0-0.4-0.1c0.2,0,0-0.1,0.4-0.1c-0.2,0-0.3-0.1-0.2-0.1c0,0,0.1,0,0.2,0
							c0.2,0,0,0-0.1,0c0.1,0,0.3,0,0.5-0.1c-0.2,0-0.4,0-0.6,0c0.5,0-0.3-0.1,0.1-0.1c0.1,0,0.3,0,0.4,0c0.5,0-0.4-0.1-0.1-0.1
							l-0.4,0c0.3,0-0.2-0.1,0.2-0.1c-0.2,0,0.1-0.1-0.3,0c0.1,0,0.1,0,0.1,0l0.1-0.5c0.1,0-0.1-0.3,0.5-0.1c-0.1,0,0,0-0.2-0.1
							c-0.2-0.1,0.1,0.1,0,0c0,0-0.1-0.1-0.2-0.1c0.1,0,0.1,0,0.5,0.2c0.3,0-0.6-0.4-0.4-0.4c0.2,0.1,0.2,0.1,0.2,0.1l-0.3-0.2
							c0.1,0,0.4,0.1,0.6,0.3c0,0,0-0.1-0.2-0.2l0.3,0.1c-0.3-0.1-0.2-0.1-0.2-0.2l0.1,0c0.1,0.1,0.1,0,0,0
							c-0.2-0.1-0.2-0.1-0.3-0.1c-0.1-0.1-0.1-0.1-0.2-0.2c0.3,0.1,0.2,0.1,0.2,0c0.1,0-0.2-0.2-0.2-0.2c0.1,0.1,0,0,0.2,0.1
							c0,0-0.1-0.1,0,0c0.1,0,0.3,0.2,0.2,0c-0.1-0.1-0.5-0.3-0.3-0.2c0.1,0,0.2,0.1,0.2,0.2l0.2,0l-0.2-0.1c0.1,0,0.1,0,0.1,0.1
							c-0.2-0.2,0-0.1-0.3-0.3c0,0,0.2,0.1,0.2,0l0,0c0.1,0.1,0.1,0-0.1-0.1l0,0c0,0,0-0.1-0.1-0.2c0.2,0.1,0.9,0.5,0.6,0.3
							c0,0-0.4-0.3-0.5-0.4c0.2,0-0.1-0.3,0.3-0.1c-0.1-0.1-0.1-0.1-0.2-0.2c0.1,0-0.1-0.4,0.3-0.1c0.1,0.1,0.2,0.2,0.3,0.3
							c-0.2-0.2,0.2,0.1-0.1-0.1c-0.2-0.1-0.3-0.2-0.4-0.3c-0.1-0.1,0-0.2,0.2-0.1c-0.1-0.1-0.1-0.1-0.2-0.2
							c0.3,0.2,0.4,0.2,0.3,0.1l-0.2-0.1l0.2,0.1c-0.1-0.1-0.4-0.3-0.2-0.2c0.1,0.1,0.1,0.1,0.2,0.1c-0.1-0.1-0.4-0.4-0.2-0.3
							l0.3,0.2c0,0-0.2-0.2-0.3-0.2c0.2,0.1,0.2,0.1,0.5,0.2c-0.5-0.5-0.4-0.7-0.3-0.7l0.1,0.1c0.1,0.1-0.2-0.2-0.1-0.1
							c0.1,0.1,0.3,0.2,0.4,0.4c0.2,0.1-0.2-0.2-0.2-0.3c-0.2-0.1,0.1,0.1-0.1-0.1c-0.1-0.1,0.2,0.1-0.1-0.2
							c0.1,0.1,0.3,0.2,0.4,0.3l-0.1-0.1c0.3,0.2,0.5,0.5,0.9,0.8l0-0.1c0.3,0.2,0.3,0.3,0.4,0.3c-0.1-0.1-0.5-0.5-0.6-0.5
							c0-0.1-0.6-0.5-0.6-0.6c0.2,0.1,0,0.1,0.2,0.2c0.2,0.2-0.1-0.1,0-0.1c-0.1-0.1-0.4-0.3-0.4-0.4c0.1,0.1,0.2,0.2,0.3,0.2
							c-0.2-0.1-0.3-0.3-0.4-0.3c-0.4-0.3,0.1,0-0.1-0.2c0.3,0.2,0.6,0.5,0.7,0.6c-0.2-0.2-0.3-0.3-0.7-0.6c0.1,0,0.3,0.2,0.4,0.3
							c0.2,0.1-0.4-0.4,0.1,0l-0.2-0.2c0.1,0.1,0.2,0.1,0.3,0.2c0,0-0.3-0.3,0.1,0c0,0,0-0.1-0.3-0.2c-0.2-0.1,0.2,0.2-0.2-0.1
							c0.3,0.2,0-0.1-0.1-0.1l0.1,0.1c-0.1-0.1,0,0-0.2-0.2c0.1,0.1,0.2,0.1,0.2,0.2l-0.2-0.2c-0.1-0.1,0.4,0.3,0.4,0.2l0.2,0.2
							c0,0,0.2,0.1,0.1,0c-0.2-0.2-0.4-0.4-0.6-0.5c-0.1-0.1,0.2,0.2,0,0l0.2,0.2c0.1,0.1,0.3,0.2,0.4,0.2c-0.1-0.1-0.4-0.3-0.5-0.4
							c0,0,0.1,0.1,0.3,0.2c-0.1-0.1-0.2-0.2-0.3-0.3c0.1,0.1,0.4,0.2,0.6,0.3l0.3,0.3l0,0c0.3,0.2,0.2,0.1,0.5,0.4
							c0.1,0,0-0.1-0.1-0.1c-0.5-0.3-0.6-0.5-1.1-0.8c-0.1-0.1,1.1,0.7,0.4,0.2c-0.1-0.1-0.4-0.3-0.3-0.2c0.1,0-0.4-0.3-0.2-0.2
							c0.2,0.1,0.5,0.3,0.7,0.5c-0.1-0.1-0.1-0.1-0.1,0c0.2,0.1,0.4,0.3,0.5,0.3c0,0,0-0.1-0.3-0.2c-0.3-0.2,0,0-0.2-0.1
							c-0.1-0.1,0.3,0.2-0.1-0.1c0,0-0.2-0.1-0.4-0.2l-0.1-0.1l0.2,0.1c0.1,0-0.3-0.2-0.2-0.2l0.3,0.2c0.3,0.2-0.2,0,0.3,0.3
							c0,0-0.2-0.2-0.1-0.1c0,0,0,0,0.1,0.1c0,0,0.7,0.4,0.3,0.1c-0.1-0.1-0.2-0.1-0.3-0.2c0-0.1-0.2-0.2-0.3-0.2
							c0.4,0.2,0,0,0.4,0.2c-0.2-0.1-0.2-0.1,0.1,0.1c0.4,0.2-0.1,0,0.3,0.2c0,0,0.4,0.2,0.7,0.4c0,0-0.1-0.1-0.1-0.1
							c-0.3-0.1-0.3-0.1-0.5-0.3c0.1,0,0-0.1-0.3-0.2c0.1,0.1,0.4,0.2,0.4,0.2c-0.1-0.1,0-0.1,0.1-0.1c-0.4-0.2-0.1-0.1-0.5-0.2
							c-0.1,0-0.4-0.2-0.6-0.3c0,0,0.2,0.1,0.3,0.1c-0.2-0.1,0.4,0.2,0,0c0.1,0.1,0.5,0.2,0.9,0.4c-0.2-0.1,0.2,0.1,0.3,0.1
							c-0.2-0.1-0.3-0.2-0.4-0.2c0.4,0.1,0.1-0.1,0.1-0.2c0.2,0,0.6,0.2,0.7,0.2c0,0-0.4-0.1-0.2-0.1l0.1,0c-0.1,0,0.3,0-0.3-0.2
							l0.4,0.2c0,0-0.1,0-0.1-0.1c0.1,0,0.3,0.1,0.4,0.1c0.3,0.1,0-0.1,0-0.1l-0.3-0.1c-0.2-0.1,0.1-0.1,0-0.2l0.3,0.1l-0.1-0.1
							c0.2,0.1,0.4,0.1,0.2,0l0.6,0.3c-0.2,0-0.3-0.1-0.6-0.2c-0.2-0.1-0.2,0,0.1,0.1c0,0,0,0-0.1-0.1c0.4,0.1,0.3,0.1,0.6,0.2
							c0,0,0.1,0,0,0c0.2,0.1,0.2,0.1,0.2,0.1c-0.1-0.1-0.2-0.1-0.3-0.1c0.3,0.1,0.4,0.2,0.3,0.2c-0.4-0.1,0.2,0.1,0.1,0.2
							c-0.3-0.1-0.6-0.2-0.7-0.3c-0.2,0,0,0-0.2,0c0.2,0.1,0.6,0.2,0.7,0.3l-0.2-0.1c0.1,0.1,0.5,0.2,0.4,0.2
							c-0.1,0-0.2,0.1-0.3,0.2l-0.2-0.1c0.5,0.2,0.1,0.2,0.3,0.3c-0.3,0,0.1,0.3-0.3,0.1c0.1,0.2,0.2,0.4,0,0.5l-0.3-0.2
							c0.2,0.2-0.2-0.1-0.2,0c0.3,0.1,0.3,0.2,0.5,0.4c-0.3-0.1-0.1,0.1,0.1,0.3l-0.2-0.1c0.3,0.3,0,0.2-0.1,0.2
							c-0.1-0.1-0.3-0.2-0.3-0.1c0.3,0.3,0.3,0.3,0.4,0.5c0,0-0.1,0-0.3,0c0.3,0.5,0,0.4,0.1,0.7l-0.2-0.2c0.4,0.5-0.2,0.3,0,0.6
							l-0.4-0.3c-0.1-0.1,0,0.1,0.3,0.4c-0.1-0.1,0.1,0.2-0.2,0c-0.1,0,0.2,0.2,0.2,0.2c-0.2-0.1-0.2,0-0.1,0.1l0,0
							c-0.1-0.1-0.2-0.2-0.3-0.2c0.1,0.1-0.2,0,0.3,0.3c-0.3-0.1,0.1,0.3-0.3,0.1c0.1,0.1,0.2,0.1,0.2,0.2c0,0-0.3-0.1-0.1,0.1
							c-0.1,0-0.2-0.2-0.2-0.1c0,0,0.2,0.1,0.2,0.2c0.2,0.2-0.3,0-0.3,0.1c0.2,0.3,0.1,0.3,0,0.4l-0.1,0c0.3,0.1,0,0-0.1,0.1
							c0-0.2,0.1-0.5,0.1-0.7c0,0,0,0,0.3,0.1c-0.1,0-0.1,0.1-0.3,0.1c0.3,0.1-0.3,0.1,0.1,0.2c0,0,0,0-0.1,0
							c-0.3,0.1,0.1,0.1-0.2,0.2c0,0-0.1,0-0.2,0c-0.2,0,0.5,0.1-0.1,0.1c0,0,0.3,0,0.3,0c-0.2,0.2,0.1,0.4,0.2,0.6
							c-0.3,0.1-1,0-0.5,0.1c-0.1,0,0.2,0,0.1,0c0.2,0.1-0.6,0-0.3,0.1c0.3,0,0.2,0,0.4,0c-0.2,0.1-0.5,0.1-0.3,0.1l-0.2,0
							c0.5,0.1,0.2,0.2,0.8,0.3c0,0.1,0,0.1,0.1,0.2c-0.1-0.5-0.2-1-0.4-1.4c0.3,0.1,0.7,0.2,0.9,0.4c0.1,0.3,0.5,0.4,0.5,0.8
							c-0.3,0.4-0.3,0.4-0.1,0.3c-0.1,0-0.1,0.1-0.1,0.1c0.3-0.3,0.1,0,0.3-0.2c0,0.1,0.2,0.2,0.3,0.3c0,0-0.3,0.2-0.3,0.2l0.2-0.2
							l-0.1,0.1c0.1,0,0.2-0.1,0.3-0.2c0.5,0,0.1,0.8,0.4,1c-0.1,0.2,0.1,0.2,0.2,0.2c-0.2,0.5-0.3,1,0.1,0.9
							C782.1,144.7,781.3,145.4,781.1,145.5z"/>
						<path fill="#202020" d="M781.2,136.3c-0.2-0.1-0.3-0.1-0.5-0.2C780.8,136.2,781,136.2,781.2,136.3z"/>
						<path fill="#202020" d="M779,136.3c0.1,0-0.1,0-0.1,0c0,0-0.2-0.1-0.1,0C778.8,136.3,778.9,136.3,779,136.3z"/>
						<path fill="#202020" d="M778.8,136.4c-0.2-0.1-0.3-0.2-0.3-0.2L778.8,136.4z"/>
						<path fill="#202020" d="M778.2,136.1C778,136,778,136,778,136C778.1,136,778.1,136,778.2,136.1z"/>
						<path fill="#202020" d="M778.5,136.3c0,0-0.1,0-0.2-0.1C778.5,136.3,778.3,136.1,778.5,136.3z"/>
						<path fill="#202020" d="M777.9,136.3C777.9,136.3,778,136.4,777.9,136.3C778,136.3,777.7,136.1,777.9,136.3z"/>
						<path fill="#202020" d="M778.1,136.5C778,136.5,778,136.5,778.1,136.5c-0.1,0-0.2-0.1-0.2-0.1L778.1,136.5z"/>
						<polygon fill="#202020" points="776.5,140.7 776.4,140.7 776.5,140.7 						"/>
						<path fill="#202020" d="M776.4,142.1c0.1,0-0.2,0-0.2,0C776.2,142.1,776.4,142.2,776.4,142.1z"/>
						<polygon fill="#202020" points="777.8,143.2 777.8,143.2 778.1,143 						"/>
					</g>
				</g>
			</g>
			<g>
				<g>
					<path fill="#FFFFFF" d="M780.8,125.2c-0.5,0.7-1.4,2-2.4,3.9c-0.4,2.7,1,4.7,2.1,6.9"/>
					<g>
						<path d="M779.6,124.5c-1.2,1.6-2.5,3.3-2.7,5.4c-0.2,2.5,1.3,4.9,2.4,7c0.9,1.7,3.5,0.2,2.6-1.5c-0.9-1.8-1.9-3.4-2-5.4
							c0-1.1,1.6-2.9,2.3-3.8C783.3,124.4,780.7,122.9,779.6,124.5L779.6,124.5z"/>
					</g>
				</g>
				<g>
					<g>
						<path fill="#FFFFFF" d="M804.2,135.1c3,3.8,3.7,11.8-0.9,14.4"/>
						<g>
							<path d="M802.9,135.9c2.4,3.3,3.7,9.7-0.4,12.3c-1.6,1-0.1,3.6,1.5,2.6c5.4-3.5,4.9-11.7,1.4-16.4
								C804.4,132.8,801.8,134.3,802.9,135.9L802.9,135.9z"/>
						</g>
					</g>
					<g>
						<path fill="#FFFFFF" d="M803.3,149.5c-0.1-0.3-0.2-0.6-0.3-0.9c-5.6-5.2-15.7-7-22.2-2.7"/>
						<g>
							<path d="M804.8,149.1c-1.1-3.8-6.7-5.6-10.2-6.5c-4.9-1.3-10.2-0.6-14.5,2c-1.7,1-0.1,3.6,1.5,2.6c3.4-2.1,7-2.5,10.9-2
								c2.4,0.3,8.5,1.9,9.4,4.7C802.4,151.7,805.3,150.9,804.8,149.1L804.8,149.1z"/>
						</g>
					</g>
					<g>
						<path fill="#FFFFFF" d="M800.6,161.3c-4.4-7-12.8-6.6-19.8-4.6c-1.3-0.3-2.5-1.6-3.1-2.7c-0.1-1.2,0-2.4-0.1-3.6
							c0.9-1.2,2.1-2.4,3.2-3.6"/>
						<g>
							<path d="M801.9,160.5c-2.5-3.5-5.9-5.9-10.2-6.4c-2.2-0.2-4.3-0.2-6.5,0.1c-1.2,0.2-2.4,0.4-3.6,0.7c-2.3-1.1-3-2.6-2-4.6
								c0.7-0.8,1.5-1.6,2.2-2.4c1.3-1.4-0.8-3.5-2.1-2.1c-2.2,2.3-3.7,3.3-3.6,6.5c0.1,2.9,1.2,4.4,3.9,5.7c1.8,0.9,6-0.9,8-1.1
								c4.6-0.3,8.6,1.3,11.3,5.1C800.4,163.6,803,162.1,801.9,160.5L801.9,160.5z"/>
						</g>
					</g>
					<g>
						<path fill="#FFFFFF" d="M804.2,135.1c-7.2-5.3-16.3-2.2-23.7,0.9"/>
						<g>
							<path d="M805,133.8c-7.9-5.2-16.7-2.6-24.8,0.7c-1.8,0.7-1,3.6,0.8,2.9c7.3-3,15.3-5.8,22.5-1
								C805.1,137.5,806.6,134.9,805,133.8L805,133.8z"/>
						</g>
					</g>
					<g>
						<path fill="#FFFFFF" d="M780.8,125.2c7.3-6.2,25.2-7.5,25.6,5.4c-0.8,1.5-0.8,3-2.3,4.5"/>
						<g>
							<path d="M781.9,126.3c4-3.2,9.3-4.4,14.3-4c6.5,0.4,11,6.4,6.7,12.1c-1.2,1.5,1.4,3,2.6,1.5c4.6-6.1,1.5-13.1-5.2-15.8
								c-6.6-2.6-15.2-0.1-20.5,4.1C778.3,125.4,780.4,127.5,781.9,126.3L781.9,126.3z"/>
						</g>
					</g>
				</g>
			</g>
		</g>
	</g>
	<g opacity="0.2">
		<path fill="#FFFFFF" d="M498.4,135.8c0,69.3,53.2,125.5,118.7,125.5c65.6,0,118.7-56.2,118.7-125.5c0-69.3-53.2-125.5-118.7-125.5
			C551.6,10.3,498.4,66.5,498.4,135.8z"/>
	</g>
	<ellipse fill="#FFFFFF" stroke="#000000" stroke-width="3" cx="615.9" cy="109.7" rx="57" ry="81.3"/>
	<g>
		<g>
			<g>
				<g>
					<path fill="#202020" d="M615.9,48c-1.2,5.8-1.9,9.8-1.9,16.7c0,7.5,0,45.3,0,45.3s0,37.7,0,45.3c0,7,0.7,10.9,1.9,16.7
						c1.2-5.8,1.9-9.8,2-16.7c0-7.5,0-45.3,0-45.3s0-37.7,0-45.3C617.8,57.8,617.1,53.8,615.9,48z"/>
				</g>
			</g>
		</g>
	</g>
	<g>
		<path d="M583.7,218c0,0,0.9,0.7,2.5,2c0.4,0.3,0.8,0.7,1.3,1.1c0.5,0.3,1,0.7,1.6,1.1c0.6,0.4,1.2,0.8,1.8,1.3
			c0.6,0.5,1.4,0.8,2.1,1.3c0.7,0.4,1.5,0.9,2.3,1.3c0.8,0.4,1.7,0.8,2.6,1.2c0.4,0.2,0.9,0.4,1.3,0.6c0.5,0.2,0.9,0.3,1.4,0.5
			c1,0.3,1.9,0.7,2.9,1.1c2,0.5,4.1,1.2,6.3,1.5c2.2,0.5,4.4,0.6,6.6,0.8c2.2,0,4.5,0.1,6.7-0.2c2.2-0.1,4.3-0.6,6.4-0.9
			c1-0.3,2-0.6,3-0.8c0.5-0.1,1-0.2,1.5-0.4c0.5-0.2,0.9-0.3,1.4-0.5c0.9-0.3,1.8-0.7,2.7-1c0.8-0.4,1.6-0.8,2.4-1.1
			c0.8-0.4,1.5-0.7,2.2-1.1c0.7-0.4,1.3-0.8,1.9-1.1c0.6-0.3,1.2-0.7,1.7-1c0.5-0.3,1-0.7,1.4-0.9c1.7-1.1,2.6-1.8,2.6-1.8
			s-0.8,0.8-2.3,2.3c-0.4,0.4-0.8,0.7-1.2,1.2c-0.5,0.4-1,0.8-1.6,1.2c-0.6,0.4-1.2,0.9-1.8,1.4c-0.6,0.5-1.4,0.9-2.1,1.3
			c-0.8,0.5-1.5,0.9-2.4,1.4c-0.9,0.4-1.8,0.8-2.7,1.2c-0.5,0.2-0.9,0.4-1.4,0.6c-0.5,0.2-1,0.3-1.5,0.5c-1,0.4-2.1,0.7-3.1,1
			c-2.2,0.4-4.4,1.1-6.7,1.3c-2.3,0.3-4.7,0.3-7.1,0.3c-2.4-0.2-4.7-0.4-7-0.9c-2.3-0.3-4.5-1.2-6.6-1.8c-1-0.4-2-0.9-3-1.3
			c-0.5-0.2-1-0.4-1.4-0.7c-0.5-0.3-0.9-0.5-1.3-0.8c-0.9-0.5-1.7-1-2.6-1.5c-0.8-0.6-1.5-1.1-2.2-1.6c-0.7-0.5-1.4-1-2-1.5
			c-0.6-0.5-1.2-1.1-1.7-1.6c-0.5-0.5-1-0.9-1.5-1.4c-0.4-0.5-0.8-0.9-1.1-1.3C584.4,218.9,583.7,218,583.7,218z"/>
	</g>
</g>
<g>
	<g>
		
			<linearGradient id="SVGID_9_" gradientUnits="userSpaceOnUse" x1="-417.8021" y1="74.3833" x2="-331.1625" y2="74.3833" gradientTransform="matrix(-1 0 0 1 806.207 0)">
			<stop  offset="0" style="stop-color:#007DC1"/>
			<stop  offset="1" style="stop-color:#5E96D0"/>
		</linearGradient>
		<polygon fill="url(#SVGID_9_)" points="1182,121.1 1137.4,82.4 1224,27.7 		"/>
		<g>
			<path d="M1183.1,120c-14.9-12.9-29.7-25.8-44.6-38.8c-0.1,0.8-0.2,1.6-0.3,2.4c28.9-18.2,57.8-36.5,86.6-54.7
				c-0.7-0.7-1.4-1.4-2.1-2.1c-14,31.1-28,62.3-42,93.4c-0.8,1.7,1.8,3.3,2.6,1.5c14-31.1,28-62.3,42-93.4c0.6-1.3-0.7-2.9-2.1-2.1
				c-28.9,18.2-57.8,36.5-86.6,54.7c-0.8,0.5-1.1,1.7-0.3,2.4c14.9,12.9,29.7,25.8,44.6,38.8C1182.4,123.4,1184.5,121.3,1183.1,120z
				"/>
		</g>
	</g>
	<g opacity="0.67">
		<polygon fill="#FFFFFF" points="1156,153.1 1111.4,114.4 1198,59.7 		"/>
	</g>
	<g>
		<linearGradient id="SVGID_10_" gradientUnits="userSpaceOnUse" x1="1178.6998" y1="164.5" x2="1218.4718" y2="164.5">
			<stop  offset="0" style="stop-color:#007DC1"/>
			<stop  offset="1" style="stop-color:#5E96D0"/>
		</linearGradient>
		<path fill="url(#SVGID_10_)" d="M1218.3,161.2c1,6.3-3.2,12.2-9.5,13.2l-16.8,2.8c-6.3,1-12.2-3.2-13.2-9.5l0,0
			c-1-6.3,3.2-12.2,9.5-13.2l16.8-2.8C1211.3,150.7,1217.3,154.9,1218.3,161.2L1218.3,161.2z"/>
		<g>
			<path d="M1217.3,161.5c0.6,6-2.5,11.6-8.9,12.7c-2.9,0.5-5.8,1-8.7,1.5c-2.4,0.4-4.8,0.8-7.1,1.2c-6.3,1.1-11.4-3.4-12.7-9.3
				c-2.5-11.2,9.9-12.9,17.7-14.1c2.4-0.4,4.8-0.8,7.1-1.2C1211,151.1,1216,155.6,1217.3,161.5c0.1,0.5,2,0,1.9-0.5
				c-2.8-12.2-14.3-9.5-23.4-8c-8.8,1.5-19.3,3.4-18,15.1c1.3,12.4,15.3,9.4,23.4,8c8.8-1.5,19.3-3.4,18-15.1
				C1219.2,160.5,1217.3,160.9,1217.3,161.5z"/>
		</g>
	</g>
	<g>
		<linearGradient id="SVGID_11_" gradientUnits="userSpaceOnUse" x1="910.7079" y1="70.3833" x2="997.3475" y2="70.3833">
			<stop  offset="0" style="stop-color:#007DC1"/>
			<stop  offset="1" style="stop-color:#5E96D0"/>
		</linearGradient>
		<polygon fill="url(#SVGID_11_)" points="952.7,117.1 997.3,78.4 910.7,23.7 		"/>
		<g>
			<path d="M953.8,118.2c14.9-12.9,29.7-25.8,44.6-38.8c0.8-0.7,0.5-1.9-0.3-2.4c-28.9-18.2-57.8-36.5-86.6-54.7
				c-1.4-0.9-2.6,0.8-2.1,2.1c14,31.1,28,62.3,42,93.4c0.8,1.8,3.4,0.2,2.6-1.5c-14-31.1-28-62.3-42-93.4c-0.7,0.7-1.4,1.4-2.1,2.1
				c28.9,18.2,57.8,36.5,86.6,54.7c-0.1-0.8-0.2-1.6-0.3-2.4c-14.9,12.9-29.7,25.8-44.6,38.8C950.2,117.3,952.3,119.4,953.8,118.2z"
				/>
		</g>
	</g>
	<g opacity="0.67">
		<polygon fill="#FFFFFF" points="978.7,149.1 1023.3,110.4 936.7,55.7 		"/>
	</g>
	<ellipse fill="#FFFFFF" stroke="#000000" stroke-width="4" cx="1067.9" cy="135.5" rx="124.5" ry="127.5"/>
	<g>
		<linearGradient id="SVGID_12_" gradientUnits="userSpaceOnUse" x1="943.4188" y1="135.5" x2="1192.4178" y2="135.5">
			<stop  offset="0" style="stop-color:#007DC1"/>
			<stop  offset="1" style="stop-color:#5E96D0"/>
		</linearGradient>
		<ellipse fill="url(#SVGID_12_)" cx="1067.9" cy="135.5" rx="124.5" ry="127.5"/>
		<g>
			<path d="M942.5,135.8c0.2,44.9,23.5,87.1,62.1,110.4c36.6,22,83,22.5,120.7,3c38.5-20,63.8-59.7,67.7-102.6
				c4.1-44.9-16.4-89.6-52.9-116c-34.4-24.9-81-29.8-119.9-13.2c-40.2,17.2-68.8,54.3-76,97.3C943,121.7,942.5,128.7,942.5,135.8
				c0,0.3,1.9,0,1.9-0.5c0.3-46.9,25.7-91,67.3-113.1C1054.4-0.6,1107.2,6,1144.4,36c36.4,29.3,53,77.7,44.9,123.4
				c-8.1,45.8-42.1,84.8-86.7,98.3c-38.3,11.6-80.3,2.3-111.2-22.6c-30-24.1-46.8-61.5-47-99.8C944.4,134.9,942.4,135.2,942.5,135.8
				z"/>
		</g>
	</g>
	<g>
		<g>
			<g>
				<path fill="#FFFFFF" d="M1232.9,123c0.6-8.8,4.7-19.7-2.7-27c-3.4-1.6-9-4-11.1,0.9c4,18.1-4.1,33.2-9,49.4
					c-2.1,2.6-6.9,1.5-8.1,5.4c-2,12,20.2,30.7,26.6,15.6c8.2,1.8,19,3.5,23.5-5.7c0-1.2,0-2.4,0.5-3.6"/>
				<g>
					<path d="M1234.4,123c0.7-7.5,3-15.2,0.4-22.6c-1.7-4.8-6.8-8.5-12.1-7.8c-2.4,0.3-3.8,1.5-4.9,3.6c-0.5,0.8,0.1,2.2,0.2,3
						c0.7,3.3,0.7,6.7,0.6,10c-0.3,10.5-4.5,20.6-7.9,30.4c-0.6,1.8-1.1,5.6-2.9,6.7c-1.1,0.7-2.6,0.8-3.8,1.4
						c-2.1,1.1-3.3,2.6-3.6,5c-0.6,5.1,2.9,10.3,6,14c6.1,7,18.4,12.3,23.5,1.5c-0.6,0.2-1.1,0.5-1.7,0.7c5.4,1.1,10.8,2,16.2,0.8
						c2.5-0.5,4.7-2,6.6-3.7c2.5-2.4,2.1-4.5,3.1-7.4c0.6-1.8-2.3-2.6-2.9-0.8c-0.7,2.3-0.6,4.1-2.3,6.1c-1.6,1.9-4.1,2.7-6.4,3.2
						c-4.4,0.9-9.2-0.2-13.5-1.1c-0.6-0.1-1.4,0.1-1.7,0.7c-5,10.6-16.8,1.2-21.1-5.1c-2.6-3.8-5-9.9,0.8-11.8
						c4.9-1.6,5-4.8,6.6-9.4c4.2-12.5,8.9-24.7,7.8-38.1c-0.3-3.7-0.8-7.7,4.4-6.4c4,1,5.9,4.1,6.9,7.9c1.6,6.1-0.7,13-1.3,19.2
						C1231.2,124.9,1234.2,124.9,1234.4,123L1234.4,123z"/>
				</g>
			</g>
			<g>
				<ellipse fill="#FFFFFF" cx="1241.3" cy="144.7" rx="17.3" ry="21"/>
				<g>
					<path fill="#FFFFFF" d="M1257.1,144.7c-0.3,9.3-5.6,19.1-15.8,19.5c-10.2,0.4-15.6-10.9-15.8-19.5c-0.3-9.3,6-19.1,15.8-19.5
						C1251.5,124.7,1256.8,136.1,1257.1,144.7c0.1,1.9,3.1,1.9,3,0c-0.3-11-6.9-22-18.8-22.5c-11.9-0.5-18.5,12.3-18.8,22.5
						c-0.3,11,7.4,22,18.8,22.5c11.9,0.5,18.5-12.3,18.8-22.5C1260.1,142.7,1257.1,142.7,1257.1,144.7z"/>
				</g>
			</g>
		</g>
		<g>
			<g>
				<path fill="#1A1A1A" d="M1253.7,162.3c1.7-1.3,3.1-3,3.9-5c0.4-1.1,0.6-2.2,0.7-3.4c0-1.4-1-2.5-1.5-3.8c-0.7-1.8-3.6-1-2.9,0.8
					c0.3,0.8,0.7,1.6,1.1,2.4c0.5,0.9,0.2,1.7-0.1,2.6c-0.5,1.8-1.9,3.2-3.3,4.3C1250.1,161.4,1252.2,163.5,1253.7,162.3
					L1253.7,162.3z"/>
			</g>
		</g>
		<g>
			<g>
				<g>
					<g>
						<path fill="#202020" d="M1233.2,136.2c-0.1-0.1-0.3-0.1-0.1-0.1C1233.2,136.2,1233.3,136.3,1233.2,136.2z"/>
						<path fill="#202020" d="M1233.1,145.5c-0.8,0.5-0.2-0.2-0.7,0c0,0,0.4-0.3,0.3-0.3c-0.6,0.4-0.5-0.1-0.2-0.6l0.1-0.1
							c0.1-0.1-0.3,0.2-0.3,0.1c0.1-0.1,0.1-0.1,0.2-0.2c-0.2,0.2-0.1,0-0.3,0.2c0.1-0.1,0.2-0.2,0.3-0.3l-0.3,0.2
							c-0.6,0.5-0.1-0.1-0.4,0.1c0.1,0,0.1-0.1,0.2-0.1c-0.4,0.2-0.5,0-0.7,0.1c0.1-0.1,0.2-0.2,0.3-0.3c-0.3,0.2-0.3,0.3-0.4,0.3
							c0.2-0.2-0.3,0.2-0.2,0l0.1,0c-0.3,0.2,0.1-0.2-0.2,0.1l0.2-0.2c-0.4,0.3,0.2-0.2,0-0.1l-0.1,0.1c-0.1,0.1,0.1-0.1,0-0.1l0,0
							c-0.1,0,0.1-0.2-0.2,0.1c0.2-0.2,0.1-0.1,0.5-0.4c-0.4,0.1-0.5-0.1-0.6-0.2c0.1-0.1,0.1-0.2,0.2-0.3c-0.1,0-0.1,0-0.3,0.1
							c0,0,0.1-0.1,0.2-0.2c0.1-0.1-0.3,0.2-0.2,0.1c0.1-0.1,0.2-0.1,0.3-0.2c-0.3,0.2-0.2,0.1-0.3,0.1c0.1,0,0.1-0.1,0.2-0.1
							c-0.3,0.2,0-0.1-0.2,0l0.2-0.1c0.2-0.2-0.4,0.3-0.3,0.1c0.1,0,0.1-0.1,0.2-0.1c-0.3,0.2-0.3,0.1-0.4,0.1c0,0,0.1-0.1,0.1-0.1
							c-0.1,0,0-0.1-0.2-0.1c0.1-0.1,0.4-0.3,0.3-0.3c-0.4,0.3-0.2,0-0.6,0.4c0-0.1,0.1-0.2,0-0.2c0.1-0.1,0.4-0.3,0.5-0.3l0.2-0.2
							c0.1-0.1,0,0.1,0.1-0.1c0,0-0.2,0.1-0.2,0c-0.2,0.1-0.7,0.4-0.8,0.4c0.2-0.1,0.4-0.3,0.5-0.3l-0.7,0.4c0,0,0.3-0.2,0.2-0.2
							c-0.1,0.1-0.2,0.1-0.2,0.2c0,0-0.1,0,0.2-0.3c0.1-0.1,0.1,0,0.2-0.1c0,0-0.1,0.1-0.2,0l0,0c0-0.1-0.2,0.1-0.4,0.2
							c0,0,0.2-0.2,0.1-0.1c-0.2,0.1-0.3,0.1-0.3,0.1l-0.2-0.6c0,0,0,0,0,0c0.1,0,0.2,0,0.3,0c-0.3-0.1-0.4-0.1-0.6-0.2
							c-0.2,0,0.4,0.1,0.3,0.1c0.3,0-0.4-0.2,0-0.2c0,0-0.3,0-0.2,0c0,0,0.3,0,0.2,0c0.2,0-0.1,0-0.1-0.1c-0.1,0,0.1,0,0.1,0
							c-0.1,0-0.4-0.2-0.2-0.2c-0.1,0-0.4-0.1-0.4-0.1l0.3,0c0.2,0,0-0.1,0.2,0c-0.3-0.1,0.3,0.1,0,0.1c0.2,0-0.4-0.1-0.1-0.1
							c0,0-0.3-0.1-0.1-0.1c0,0,0.4,0,0.4,0c0,0-0.1,0-0.2-0.1l-0.1,0c-0.3,0,0,0-0.3,0c0.2,0-0.1-0.1,0.3,0l0.3,0
							c0,0-0.4,0-0.5-0.1c0,0,0.1,0,0.2,0c-0.5,0,0,0-0.4-0.1c0.2,0,0-0.1,0.4-0.1c-0.2,0-0.3-0.1-0.2-0.1c0,0,0.1,0,0.2,0
							c0.2,0,0,0-0.1,0c0.1,0,0.3,0,0.5-0.1c-0.2,0-0.4,0-0.6,0c0.5,0-0.3-0.1,0.1-0.1c0.1,0,0.3,0,0.4,0c0.5,0-0.4-0.1-0.1-0.1
							l-0.4,0c0.3,0-0.2-0.1,0.2-0.1c-0.2,0,0.1-0.1-0.3,0c0.1,0,0.1,0,0.1,0l0.1-0.5c0.1,0-0.1-0.3,0.5-0.1c-0.1,0,0,0-0.2-0.1
							c-0.2-0.1,0.1,0.1,0,0c0,0-0.1-0.1-0.2-0.1c0.1,0,0.1,0,0.5,0.2c0.3,0-0.6-0.4-0.4-0.4c0.2,0.1,0.2,0.1,0.2,0.1l-0.3-0.2
							c0.1,0,0.4,0.1,0.6,0.3c0,0,0-0.1-0.2-0.2l0.3,0.1c-0.3-0.1-0.2-0.1-0.2-0.2l0.1,0c0.1,0.1,0.1,0,0,0
							c-0.2-0.1-0.2-0.1-0.3-0.1c-0.1-0.1-0.1-0.1-0.2-0.2c0.3,0.1,0.2,0.1,0.2,0c0.1,0-0.2-0.2-0.2-0.2c0.1,0.1,0,0,0.2,0.1
							c0,0-0.1-0.1,0,0c0.1,0,0.3,0.2,0.2,0c-0.1-0.1-0.5-0.3-0.3-0.2c0.1,0,0.2,0.1,0.2,0.2l0.2,0l-0.2-0.1c0.1,0,0.1,0,0.1,0.1
							c-0.2-0.2,0-0.1-0.3-0.3c0,0,0.2,0.1,0.2,0l0,0c0.1,0.1,0.1,0-0.1-0.1l0,0c0,0,0-0.1-0.1-0.2c0.2,0.1,0.9,0.5,0.6,0.3
							c0,0-0.4-0.3-0.5-0.4c0.2,0-0.1-0.3,0.3-0.1c-0.1-0.1-0.1-0.1-0.2-0.2c0.1,0-0.1-0.4,0.3-0.1c0.1,0.1,0.2,0.2,0.3,0.3
							c-0.2-0.2,0.2,0.1-0.1-0.1c-0.2-0.1-0.3-0.2-0.4-0.3c-0.1-0.1,0-0.2,0.2-0.1c-0.1-0.1-0.1-0.1-0.2-0.2
							c0.3,0.2,0.4,0.2,0.3,0.1l-0.2-0.1l0.2,0.1c-0.1-0.1-0.4-0.3-0.2-0.2c0.1,0.1,0.1,0.1,0.2,0.1c-0.1-0.1-0.4-0.4-0.2-0.3
							l0.3,0.2c0,0-0.2-0.2-0.3-0.2c0.2,0.1,0.2,0.1,0.5,0.2c-0.5-0.5-0.4-0.7-0.3-0.7l0.1,0.1c0.1,0.1-0.2-0.2-0.1-0.1
							c0.1,0.1,0.3,0.2,0.4,0.4c0.2,0.1-0.2-0.2-0.2-0.3c-0.2-0.1,0.1,0.1-0.1-0.1c-0.1-0.1,0.2,0.1-0.1-0.2
							c0.1,0.1,0.3,0.2,0.4,0.3l-0.1-0.1c0.3,0.2,0.5,0.5,0.9,0.8l0-0.1c0.3,0.2,0.3,0.3,0.4,0.3c-0.1-0.1-0.5-0.5-0.6-0.5
							c0-0.1-0.6-0.5-0.6-0.6c0.2,0.1,0,0.1,0.2,0.2c0.2,0.2-0.1-0.1,0-0.1c-0.1-0.1-0.4-0.3-0.4-0.4c0.1,0.1,0.2,0.2,0.3,0.2
							c-0.2-0.1-0.3-0.3-0.4-0.3c-0.4-0.3,0.1,0-0.1-0.2c0.3,0.2,0.6,0.5,0.7,0.6c-0.2-0.2-0.3-0.3-0.7-0.6c0.1,0,0.3,0.2,0.4,0.3
							c0.2,0.1-0.4-0.4,0.1,0l-0.2-0.2c0.1,0.1,0.2,0.1,0.3,0.2c0,0-0.3-0.3,0.1,0c0,0,0-0.1-0.3-0.2c-0.2-0.1,0.2,0.2-0.2-0.1
							c0.3,0.2,0-0.1-0.1-0.1l0.1,0.1c-0.1-0.1,0,0-0.2-0.2c0.1,0.1,0.2,0.1,0.2,0.2l-0.2-0.2c-0.1-0.1,0.4,0.3,0.4,0.2l0.2,0.2
							c0,0,0.2,0.1,0.1,0c-0.2-0.2-0.4-0.4-0.6-0.5c-0.1-0.1,0.2,0.2,0,0l0.2,0.2c0.1,0.1,0.3,0.2,0.4,0.2c-0.1-0.1-0.3-0.3-0.5-0.4
							c0,0,0.1,0.1,0.3,0.2c-0.1-0.1-0.2-0.2-0.3-0.3c0.1,0.1,0.4,0.2,0.6,0.3l0.3,0.3l0,0c0.3,0.2,0.2,0.1,0.5,0.4
							c0.1,0,0-0.1-0.1-0.1c-0.5-0.3-0.6-0.5-1.1-0.8c-0.1-0.1,1.1,0.7,0.4,0.2c-0.1-0.1-0.4-0.3-0.3-0.2c0.1,0-0.4-0.3-0.2-0.2
							c0.2,0.1,0.5,0.3,0.7,0.5c-0.1-0.1-0.1-0.1-0.1,0c0.2,0.1,0.4,0.3,0.5,0.3c0,0,0-0.1-0.3-0.2c-0.3-0.2,0,0-0.2-0.1
							c-0.1-0.1,0.3,0.2-0.1-0.1c0,0-0.2-0.1-0.4-0.2l-0.1-0.1l0.2,0.1c0.1,0-0.3-0.2-0.2-0.2l0.3,0.2c0.3,0.2-0.2,0,0.3,0.3
							c0,0-0.2-0.2-0.1-0.1c0,0,0,0,0.1,0.1c0,0,0.7,0.4,0.3,0.1c-0.1-0.1-0.2-0.1-0.3-0.2c0-0.1-0.2-0.2-0.3-0.2
							c0.4,0.2,0,0,0.4,0.2c-0.2-0.1-0.2-0.1,0.1,0.1c0.4,0.2-0.1,0,0.3,0.2c0,0,0.4,0.2,0.7,0.4c0,0-0.1-0.1-0.1-0.1
							c-0.3-0.1-0.3-0.1-0.5-0.3c0.1,0,0-0.1-0.3-0.2c0.1,0.1,0.4,0.2,0.4,0.2c-0.1-0.1,0-0.1,0.1-0.1c-0.4-0.2-0.1-0.1-0.5-0.2
							c-0.1,0-0.4-0.2-0.6-0.3c0,0,0.2,0.1,0.3,0.1c-0.2-0.1,0.4,0.2,0,0c0.1,0.1,0.5,0.2,0.9,0.4c-0.2-0.1,0.2,0.1,0.3,0.1
							c-0.2-0.1-0.3-0.2-0.4-0.2c0.4,0.1,0.1-0.1,0.1-0.2c0.2,0,0.6,0.2,0.7,0.2c0,0-0.4-0.1-0.2-0.1l0.1,0c-0.1,0,0.3,0-0.3-0.2
							l0.4,0.2c0,0-0.1,0-0.1-0.1c0.1,0,0.3,0.1,0.4,0.1c0.3,0.1,0-0.1,0-0.1l-0.3-0.1c-0.2-0.1,0.1-0.1,0-0.2l0.3,0.1l-0.1-0.1
							c0.2,0.1,0.4,0.1,0.2,0l0.6,0.3c-0.2,0-0.3-0.1-0.6-0.2c-0.2-0.1-0.2,0,0.1,0.1c0,0,0,0-0.1-0.1c0.4,0.1,0.3,0.1,0.6,0.2
							c0,0,0.1,0,0,0c0.2,0.1,0.2,0.1,0.2,0.1c-0.1-0.1-0.2-0.1-0.3-0.1c0.3,0.1,0.4,0.2,0.3,0.2c-0.4-0.1,0.2,0.1,0.1,0.2
							c-0.3-0.1-0.6-0.2-0.7-0.3c-0.2,0,0,0-0.2,0c0.2,0.1,0.6,0.2,0.7,0.3l-0.2-0.1c0.1,0.1,0.5,0.2,0.4,0.2
							c-0.1,0-0.2,0.1-0.3,0.2l-0.2-0.1c0.5,0.2,0.1,0.2,0.3,0.3c-0.3,0,0.1,0.3-0.3,0.1c0.1,0.2,0.2,0.4,0,0.5l-0.3-0.2
							c0.2,0.2-0.2-0.1-0.2,0c0.3,0.1,0.3,0.2,0.5,0.4c-0.3-0.1-0.1,0.1,0.1,0.3l-0.2-0.1c0.3,0.3,0,0.2-0.1,0.2
							c-0.1-0.1-0.3-0.2-0.3-0.1c0.3,0.3,0.3,0.3,0.4,0.5c0,0-0.1,0-0.3,0c0.3,0.5,0,0.4,0.1,0.7l-0.2-0.2c0.4,0.5-0.2,0.3,0,0.6
							l-0.4-0.3c-0.1-0.1,0,0.1,0.3,0.4c-0.1-0.1,0.1,0.2-0.2,0c-0.1,0,0.2,0.2,0.2,0.2c-0.2-0.1-0.2,0-0.1,0.1l0,0
							c-0.1-0.1-0.2-0.2-0.3-0.2c0.1,0.1-0.2,0,0.3,0.3c-0.3-0.1,0.1,0.3-0.3,0.1c0.1,0.1,0.2,0.1,0.2,0.2c0,0-0.3-0.1-0.1,0.1
							c-0.1,0-0.2-0.2-0.2-0.1c0,0,0.2,0.1,0.2,0.2c0.2,0.2-0.3,0-0.3,0.1c0.2,0.3,0.1,0.3,0,0.4l-0.1,0c0.3,0.1,0,0-0.1,0.1
							c0-0.2,0.1-0.5,0.1-0.7c0,0,0,0,0.3,0.1c-0.1,0-0.1,0.1-0.3,0.1c0.3,0.1-0.3,0.1,0.1,0.2c0,0,0,0-0.1,0
							c-0.3,0.1,0.1,0.1-0.2,0.2c0,0-0.1,0-0.2,0c-0.2,0,0.5,0.1-0.1,0.1c0,0,0.3,0,0.3,0c-0.2,0.2,0.1,0.4,0.2,0.6
							c-0.3,0.1-1,0-0.5,0.1c-0.1,0,0.2,0,0.1,0c0.2,0.1-0.6,0-0.3,0.1c0.3,0,0.2,0,0.4,0c-0.2,0.1-0.5,0.1-0.3,0.1l-0.2,0
							c0.5,0.1,0.2,0.2,0.8,0.3c0,0.1,0,0.1,0.1,0.2c-0.1-0.5-0.2-1-0.4-1.4c0.3,0.1,0.7,0.2,0.9,0.4c0.1,0.3,0.5,0.4,0.5,0.8
							c-0.3,0.4-0.3,0.4-0.1,0.3c-0.1,0-0.1,0.1-0.1,0.1c0.3-0.3,0.1,0,0.3-0.2c0,0.1,0.2,0.2,0.3,0.3c0,0-0.3,0.2-0.3,0.2l0.2-0.2
							l-0.1,0.1c0.1,0,0.2-0.1,0.3-0.2c0.5,0,0.1,0.8,0.4,1c-0.1,0.2,0.1,0.2,0.2,0.2c-0.2,0.5-0.3,1,0.1,0.9
							C1234.1,144.7,1233.4,145.4,1233.1,145.5z"/>
						<path fill="#202020" d="M1233.2,136.3c-0.2-0.1-0.3-0.1-0.5-0.2C1232.8,136.2,1233,136.2,1233.2,136.3z"/>
						<path fill="#202020" d="M1231,136.3c0.1,0-0.1,0-0.1,0c0,0-0.2-0.1-0.1,0C1230.9,136.3,1231,136.3,1231,136.3z"/>
						<path fill="#202020" d="M1230.9,136.4c-0.2-0.1-0.3-0.2-0.3-0.2L1230.9,136.4z"/>
						<path fill="#202020" d="M1230.2,136.1c-0.1-0.1-0.2-0.1-0.2-0.1C1230.1,136,1230.1,136,1230.2,136.1z"/>
						<path fill="#202020" d="M1230.5,136.3c0,0-0.1,0-0.2-0.1C1230.5,136.3,1230.3,136.1,1230.5,136.3z"/>
						<path fill="#202020" d="M1230,136.3C1230,136.3,1230.1,136.4,1230,136.3C1230,136.3,1229.7,136.1,1230,136.3z"/>
						<path fill="#202020" d="M1230.1,136.5C1230.1,136.5,1230.1,136.5,1230.1,136.5c-0.1,0-0.2-0.1-0.2-0.1L1230.1,136.5z"/>
						<polygon fill="#202020" points="1228.5,140.7 1228.4,140.7 1228.6,140.7 						"/>
						<path fill="#202020" d="M1228.4,142.1c0.1,0-0.2,0-0.2,0C1228.2,142.1,1228.4,142.2,1228.4,142.1z"/>
						<polygon fill="#202020" points="1229.9,143.2 1229.9,143.2 1230.2,143 						"/>
					</g>
				</g>
			</g>
			<g>
				<g>
					<path fill="#FFFFFF" d="M1232.9,125.2c-0.5,0.7-1.4,2-2.4,3.9c-0.4,2.7,1,4.7,2.1,6.9"/>
					<g>
						<path d="M1231.6,124.5c-1.2,1.6-2.5,3.3-2.7,5.4c-0.2,2.5,1.3,4.9,2.4,7c0.9,1.7,3.5,0.2,2.6-1.5c-0.9-1.8-1.9-3.4-2-5.4
							c0-1.1,1.6-2.9,2.3-3.8C1235.3,124.4,1232.7,122.9,1231.6,124.5L1231.6,124.5z"/>
					</g>
				</g>
				<g>
					<g>
						<path fill="#FFFFFF" d="M1256.3,135.1c3,3.8,3.7,11.8-0.9,14.4"/>
						<g>
							<path d="M1255,135.9c2.4,3.3,3.7,9.7-0.4,12.3c-1.6,1-0.1,3.6,1.5,2.6c5.4-3.5,4.9-11.7,1.4-16.4
								C1256.4,132.8,1253.8,134.3,1255,135.9L1255,135.9z"/>
						</g>
					</g>
					<g>
						<path fill="#FFFFFF" d="M1255.4,149.5c-0.1-0.3-0.2-0.6-0.3-0.9c-5.6-5.2-15.7-7-22.2-2.7"/>
						<g>
							<path d="M1256.8,149.1c-1.1-3.8-6.7-5.6-10.2-6.5c-4.9-1.3-10.2-0.6-14.5,2c-1.7,1-0.1,3.6,1.5,2.6c3.4-2.1,7-2.5,10.9-2
								c2.4,0.3,8.5,1.9,9.4,4.7C1254.5,151.7,1257.4,150.9,1256.8,149.1L1256.8,149.1z"/>
						</g>
					</g>
					<g>
						<path fill="#FFFFFF" d="M1252.7,161.3c-4.4-7-12.8-6.6-19.8-4.6c-1.3-0.3-2.5-1.6-3.1-2.7c-0.1-1.2,0-2.4-0.1-3.6
							c0.9-1.2,2.1-2.4,3.2-3.6"/>
						<g>
							<path d="M1254,160.5c-2.5-3.5-5.9-5.9-10.2-6.4c-2.2-0.2-4.3-0.2-6.5,0.1c-1.2,0.2-2.4,0.4-3.6,0.7c-2.3-1.1-3-2.6-2-4.6
								c0.7-0.8,1.5-1.6,2.2-2.4c1.3-1.4-0.8-3.5-2.1-2.1c-2.2,2.3-3.7,3.3-3.6,6.5c0.1,2.9,1.2,4.4,3.9,5.7c1.8,0.9,6-0.9,8-1.1
								c4.6-0.3,8.6,1.3,11.3,5.1C1252.5,163.6,1255.1,162.1,1254,160.5L1254,160.5z"/>
						</g>
					</g>
					<g>
						<path fill="#FFFFFF" d="M1256.3,135.1c-7.2-5.3-16.3-2.2-23.7,0.9"/>
						<g>
							<path d="M1257,133.8c-7.9-5.2-16.7-2.6-24.8,0.7c-1.8,0.7-1,3.6,0.8,2.9c7.3-3,15.3-5.8,22.5-1
								C1257.1,137.5,1258.6,134.9,1257,133.8L1257,133.8z"/>
						</g>
					</g>
					<g>
						<path fill="#FFFFFF" d="M1232.9,125.2c7.3-6.2,25.2-7.5,25.6,5.4c-0.8,1.5-0.8,3-2.3,4.5"/>
						<g>
							<path d="M1234,126.3c4-3.2,9.3-4.4,14.3-4c6.5,0.4,11,6.4,6.7,12.1c-1.2,1.5,1.4,3,2.6,1.5c4.6-6.1,1.5-13.1-5.2-15.8
								c-6.6-2.6-15.2-0.1-20.5,4.1C1230.3,125.4,1232.5,127.5,1234,126.3L1234,126.3z"/>
						</g>
					</g>
				</g>
			</g>
		</g>
	</g>
	<g opacity="0.2">
		<path fill="#FFFFFF" d="M950.5,135.8c0,69.3,53.2,125.5,118.7,125.5c65.6,0,118.7-56.2,118.7-125.5c0-69.3-53.2-125.5-118.7-125.5
			C1003.6,10.3,950.5,66.5,950.5,135.8z"/>
	</g>
	<ellipse fill="#FFFFFF" stroke="#000000" stroke-width="3" cx="1067.9" cy="109.7" rx="57" ry="81.3"/>
	<g>
		<g>
			<g>
				<g>
					<path fill="#202020" d="M1067.9,48c-1.2,5.8-1.9,9.8-1.9,16.7c0,7.5,0,45.3,0,45.3s0,37.7,0,45.3c0,7,0.7,10.9,1.9,16.7
						c1.2-5.8,1.9-9.8,2-16.7c0-7.5,0-45.3,0-45.3s0-37.7,0-45.3C1069.8,57.8,1069.2,53.8,1067.9,48z"/>
				</g>
			</g>
		</g>
	</g>
	<g>
		<path d="M1035.7,218c0,0,0.9,0.7,2.5,2c0.4,0.3,0.8,0.7,1.3,1.1c0.5,0.3,1,0.7,1.6,1.1c0.6,0.4,1.2,0.8,1.8,1.3
			c0.6,0.5,1.4,0.8,2.1,1.3c0.7,0.4,1.5,0.9,2.3,1.3c0.8,0.4,1.7,0.8,2.6,1.2c0.4,0.2,0.9,0.4,1.3,0.6c0.5,0.2,0.9,0.3,1.4,0.5
			c1,0.3,1.9,0.7,2.9,1.1c2,0.5,4.1,1.2,6.3,1.5c2.2,0.5,4.4,0.6,6.6,0.8c2.2,0,4.5,0.1,6.7-0.2c2.2-0.1,4.3-0.6,6.4-0.9
			c1-0.3,2-0.6,3-0.8c0.5-0.1,1-0.2,1.5-0.4c0.5-0.2,0.9-0.3,1.4-0.5c0.9-0.3,1.8-0.7,2.7-1c0.8-0.4,1.6-0.8,2.4-1.1
			c0.8-0.4,1.5-0.7,2.2-1.1c0.7-0.4,1.3-0.8,1.9-1.1c0.6-0.3,1.2-0.7,1.7-1c0.5-0.3,1-0.7,1.4-0.9c1.7-1.1,2.6-1.8,2.6-1.8
			s-0.8,0.8-2.3,2.3c-0.4,0.4-0.8,0.7-1.2,1.2c-0.5,0.4-1,0.8-1.6,1.2c-0.6,0.4-1.2,0.9-1.8,1.4c-0.6,0.5-1.4,0.9-2.1,1.3
			c-0.8,0.5-1.5,0.9-2.4,1.4c-0.9,0.4-1.8,0.8-2.7,1.2c-0.5,0.2-0.9,0.4-1.4,0.6c-0.5,0.2-1,0.3-1.5,0.5c-1,0.4-2.1,0.7-3.1,1
			c-2.2,0.4-4.4,1.1-6.7,1.3c-2.3,0.3-4.7,0.3-7.1,0.3c-2.4-0.2-4.7-0.4-7-0.9c-2.3-0.3-4.5-1.2-6.6-1.8c-1-0.4-2-0.9-3-1.3
			c-0.5-0.2-1-0.4-1.4-0.7c-0.5-0.3-0.9-0.5-1.3-0.8c-0.9-0.5-1.7-1-2.6-1.5c-0.8-0.6-1.5-1.1-2.2-1.6c-0.7-0.5-1.4-1-2-1.5
			c-0.6-0.5-1.2-1.1-1.7-1.6c-0.5-0.5-1-0.9-1.5-1.4c-0.4-0.5-0.8-0.9-1.1-1.3C1036.5,218.9,1035.7,218,1035.7,218z"/>
	</g>
</g>
<g>
	<g>
		
			<linearGradient id="SVGID_13_" gradientUnits="userSpaceOnUse" x1="-870.8433" y1="74.3833" x2="-784.2037" y2="74.3833" gradientTransform="matrix(-1 0 0 1 806.207 0)">
			<stop  offset="0" style="stop-color:#006838"/>
			<stop  offset="1" style="stop-color:#69BD45"/>
		</linearGradient>
		<polygon fill="url(#SVGID_13_)" points="1635,121.1 1590.4,82.4 1677.1,27.7 		"/>
		<g>
			<path d="M1636.1,120c-14.9-12.9-29.7-25.8-44.6-38.8c-0.1,0.8-0.2,1.6-0.3,2.4c28.9-18.2,57.8-36.5,86.6-54.7
				c-0.7-0.7-1.4-1.4-2.1-2.1c-14,31.1-28,62.3-42,93.4c-0.8,1.7,1.8,3.3,2.6,1.5c14-31.1,28-62.3,42-93.4c0.6-1.3-0.7-2.9-2.1-2.1
				c-28.9,18.2-57.8,36.5-86.6,54.7c-0.8,0.5-1.1,1.7-0.3,2.4c14.9,12.9,29.7,25.8,44.6,38.8C1635.4,123.4,1637.6,121.3,1636.1,120z
				"/>
		</g>
	</g>
	<g opacity="0.67">
		<polygon fill="#FFFFFF" points="1609,153.1 1564.4,114.4 1651.1,59.7 		"/>
	</g>
	<g>
		<linearGradient id="SVGID_14_" gradientUnits="userSpaceOnUse" x1="1631.741" y1="164.5" x2="1671.5129" y2="164.5">
			<stop  offset="0" style="stop-color:#006838"/>
			<stop  offset="1" style="stop-color:#69BD45"/>
		</linearGradient>
		<path fill="url(#SVGID_14_)" d="M1671.4,161.2c1,6.3-3.2,12.2-9.5,13.2l-16.8,2.8c-6.3,1-12.2-3.2-13.2-9.5l0,0
			c-1-6.3,3.2-12.2,9.5-13.2l16.8-2.8C1664.4,150.7,1670.3,154.9,1671.4,161.2L1671.4,161.2z"/>
		<g>
			<path d="M1670.4,161.5c0.6,6-2.5,11.6-8.9,12.7c-2.9,0.5-5.8,1-8.7,1.5c-2.4,0.4-4.8,0.8-7.1,1.2c-6.3,1.1-11.4-3.4-12.7-9.3
				c-2.5-11.2,9.9-12.9,17.7-14.1c2.4-0.4,4.8-0.8,7.1-1.2C1664,151.1,1669.1,155.6,1670.4,161.5c0.1,0.5,2,0,1.9-0.5
				c-2.8-12.2-14.3-9.5-23.4-8c-8.8,1.5-19.3,3.4-18,15.1c1.3,12.4,15.3,9.4,23.4,8c8.8-1.5,19.3-3.4,18-15.1
				C1672.3,160.5,1670.3,160.9,1670.4,161.5z"/>
		</g>
	</g>
	<g>
		<linearGradient id="SVGID_15_" gradientUnits="userSpaceOnUse" x1="1363.749" y1="70.3833" x2="1450.3887" y2="70.3833">
			<stop  offset="0" style="stop-color:#006838"/>
			<stop  offset="1" style="stop-color:#69BD45"/>
		</linearGradient>
		<polygon fill="url(#SVGID_15_)" points="1405.8,117.1 1450.4,78.4 1363.7,23.7 		"/>
		<g>
			<path d="M1406.8,118.2c14.9-12.9,29.7-25.8,44.6-38.8c0.8-0.7,0.5-1.9-0.3-2.4c-28.9-18.2-57.8-36.5-86.6-54.7
				c-1.4-0.9-2.6,0.8-2.1,2.1c14,31.1,28,62.3,42,93.4c0.8,1.8,3.4,0.2,2.6-1.5c-14-31.1-28-62.3-42-93.4c-0.7,0.7-1.4,1.4-2.1,2.1
				c28.9,18.2,57.8,36.5,86.6,54.7c-0.1-0.8-0.2-1.6-0.3-2.4c-14.9,12.9-29.7,25.8-44.6,38.8
				C1403.2,117.3,1405.4,119.4,1406.8,118.2z"/>
		</g>
	</g>
	<g opacity="0.67">
		<polygon fill="#FFFFFF" points="1431.8,149.1 1476.4,110.4 1389.7,55.7 		"/>
	</g>
	<ellipse fill="#FFFFFF" stroke="#000000" stroke-width="4" cx="1521" cy="135.5" rx="124.5" ry="127.5"/>
	<g>
		<linearGradient id="SVGID_16_" gradientUnits="userSpaceOnUse" x1="1396.46" y1="135.5" x2="1645.459" y2="135.5">
			<stop  offset="0" style="stop-color:#006838"/>
			<stop  offset="1" style="stop-color:#69BD45"/>
		</linearGradient>
		<ellipse fill="url(#SVGID_16_)" cx="1521" cy="135.5" rx="124.5" ry="127.5"/>
		<g>
			<path d="M1395.5,135.8c0.2,44.9,23.5,87.1,62.1,110.4c36.6,22,83,22.5,120.7,3c38.5-20,63.8-59.7,67.7-102.6
				c4.1-44.9-16.4-89.6-52.9-116c-34.4-24.9-81-29.8-119.9-13.2c-40.2,17.2-68.8,54.3-76,97.3C1396,121.7,1395.5,128.7,1395.5,135.8
				c0,0.3,1.9,0,1.9-0.5c0.3-46.9,25.7-91,67.3-113.1C1507.4-0.6,1560.2,6,1597.5,36c36.4,29.3,53,77.7,44.9,123.4
				c-8.1,45.8-42.1,84.8-86.7,98.3c-38.3,11.6-80.3,2.3-111.2-22.6c-30-24.1-46.8-61.5-47-99.8
				C1397.4,134.9,1395.5,135.2,1395.5,135.8z"/>
		</g>
	</g>
	<g>
		<g>
			<g>
				<path fill="#FFFFFF" d="M1686,123c0.6-8.8,4.7-19.7-2.7-27c-3.4-1.6-9-4-11.1,0.9c4,18.1-4.1,33.2-9,49.4
					c-2.1,2.6-6.9,1.5-8.1,5.4c-2,12,20.2,30.7,26.6,15.6c8.2,1.8,19,3.5,23.5-5.7c0-1.2,0-2.4,0.5-3.6"/>
				<g>
					<path d="M1687.5,123c0.7-7.5,3-15.2,0.4-22.6c-1.7-4.8-6.8-8.5-12.1-7.8c-2.4,0.3-3.8,1.5-4.9,3.6c-0.5,0.8,0.1,2.2,0.2,3
						c0.7,3.3,0.7,6.7,0.6,10c-0.3,10.5-4.5,20.6-7.9,30.4c-0.6,1.8-1.1,5.6-2.9,6.7c-1.1,0.7-2.6,0.8-3.8,1.4
						c-2.1,1.1-3.3,2.6-3.6,5c-0.6,5.1,2.9,10.3,6,14c6.1,7,18.4,12.3,23.5,1.5c-0.6,0.2-1.1,0.5-1.7,0.7c5.4,1.1,10.8,2,16.2,0.8
						c2.5-0.5,4.7-2,6.6-3.7c2.5-2.4,2.1-4.5,3.1-7.4c0.6-1.8-2.3-2.6-2.9-0.8c-0.7,2.3-0.6,4.1-2.3,6.1c-1.6,1.9-4.1,2.7-6.4,3.2
						c-4.4,0.9-9.2-0.2-13.5-1.1c-0.6-0.1-1.4,0.1-1.7,0.7c-5,10.6-16.8,1.2-21.1-5.1c-2.6-3.8-5-9.9,0.8-11.8
						c4.9-1.6,5-4.8,6.6-9.4c4.2-12.5,8.9-24.7,7.8-38.1c-0.3-3.7-0.8-7.7,4.4-6.4c4,1,5.9,4.1,6.9,7.9c1.6,6.1-0.7,13-1.3,19.2
						C1684.3,124.9,1687.3,124.9,1687.5,123L1687.5,123z"/>
				</g>
			</g>
			<g>
				<ellipse fill="#FFFFFF" cx="1694.3" cy="144.7" rx="17.3" ry="21"/>
				<g>
					<path fill="#FFFFFF" d="M1710.1,144.7c-0.3,9.3-5.6,19.1-15.8,19.5c-10.2,0.4-15.6-10.9-15.8-19.5c-0.3-9.3,6-19.1,15.8-19.5
						C1704.5,124.7,1709.9,136.1,1710.1,144.7c0.1,1.9,3.1,1.9,3,0c-0.3-11-6.9-22-18.8-22.5c-11.9-0.5-18.5,12.3-18.8,22.5
						c-0.3,11,7.4,22,18.8,22.5c11.9,0.5,18.5-12.3,18.8-22.5C1713.2,142.7,1710.2,142.7,1710.1,144.7z"/>
				</g>
			</g>
		</g>
		<g>
			<g>
				<path fill="#1A1A1A" d="M1706.8,162.3c1.7-1.3,3.1-3,3.9-5c0.4-1.1,0.6-2.2,0.7-3.4c0-1.4-1-2.5-1.5-3.8c-0.7-1.8-3.6-1-2.9,0.8
					c0.3,0.8,0.7,1.6,1.1,2.4c0.5,0.9,0.2,1.7-0.1,2.6c-0.5,1.8-1.9,3.2-3.3,4.3C1703.2,161.4,1705.3,163.5,1706.8,162.3
					L1706.8,162.3z"/>
			</g>
		</g>
		<g>
			<g>
				<g>
					<g>
						<path fill="#202020" d="M1686.2,136.2c-0.1-0.1-0.3-0.1-0.1-0.1C1686.2,136.2,1686.3,136.3,1686.2,136.2z"/>
						<path fill="#202020" d="M1686.2,145.5c-0.8,0.5-0.2-0.2-0.7,0c0,0,0.4-0.3,0.3-0.3c-0.6,0.4-0.5-0.1-0.2-0.6l0.1-0.1
							c0.1-0.1-0.3,0.2-0.3,0.1c0.1-0.1,0.1-0.1,0.2-0.2c-0.2,0.2-0.1,0-0.3,0.2c0.1-0.1,0.2-0.2,0.3-0.3l-0.3,0.2
							c-0.6,0.5-0.1-0.1-0.4,0.1c0.1,0,0.1-0.1,0.2-0.1c-0.4,0.2-0.5,0-0.7,0.1c0.1-0.1,0.2-0.2,0.3-0.3c-0.3,0.2-0.3,0.3-0.4,0.3
							c0.2-0.2-0.3,0.2-0.2,0l0.1,0c-0.3,0.2,0.1-0.2-0.2,0.1l0.2-0.2c-0.4,0.3,0.2-0.2,0-0.1l-0.1,0.1c-0.1,0.1,0.1-0.1,0-0.1l0,0
							c-0.1,0,0.1-0.2-0.2,0.1c0.2-0.2,0.1-0.1,0.5-0.4c-0.4,0.1-0.5-0.1-0.6-0.2c0.1-0.1,0.1-0.2,0.2-0.3c-0.1,0-0.1,0-0.3,0.1
							c0,0,0.1-0.1,0.2-0.2c0.1-0.1-0.3,0.2-0.2,0.1c0.1-0.1,0.2-0.1,0.3-0.2c-0.3,0.2-0.2,0.1-0.3,0.1c0.1,0,0.1-0.1,0.2-0.1
							c-0.3,0.2,0-0.1-0.2,0l0.2-0.1c0.2-0.2-0.4,0.3-0.3,0.1c0.1,0,0.1-0.1,0.2-0.1c-0.3,0.2-0.3,0.1-0.4,0.1c0,0,0.1-0.1,0.1-0.1
							c-0.1,0,0-0.1-0.2-0.1c0.1-0.1,0.4-0.3,0.3-0.3c-0.4,0.3-0.2,0-0.6,0.4c0-0.1,0.1-0.2,0-0.2c0.1-0.1,0.4-0.3,0.5-0.3l0.2-0.2
							c0.1-0.1,0,0.1,0.1-0.1c0,0-0.2,0.1-0.2,0c-0.2,0.1-0.7,0.4-0.8,0.4c0.2-0.1,0.4-0.3,0.5-0.3l-0.7,0.4c0,0,0.3-0.2,0.2-0.2
							c-0.1,0.1-0.2,0.1-0.2,0.2c0,0-0.1,0,0.2-0.3c0.1-0.1,0.1,0,0.2-0.1c0,0-0.1,0.1-0.2,0l0,0c0-0.1-0.2,0.1-0.4,0.2
							c0,0,0.2-0.2,0.1-0.1c-0.2,0.1-0.3,0.1-0.3,0.1l-0.2-0.6c0,0,0,0,0,0c0.1,0,0.2,0,0.3,0c-0.3-0.1-0.4-0.1-0.6-0.2
							c-0.2,0,0.4,0.1,0.3,0.1c0.3,0-0.4-0.2,0-0.2c0,0-0.3,0-0.2,0c0,0,0.3,0,0.2,0c0.2,0-0.1,0-0.1-0.1c-0.1,0,0.1,0,0.1,0
							c-0.1,0-0.4-0.2-0.2-0.2c-0.1,0-0.4-0.1-0.4-0.1l0.3,0c0.2,0,0-0.1,0.2,0c-0.3-0.1,0.3,0.1,0,0.1c0.2,0-0.4-0.1-0.1-0.1
							c0,0-0.3-0.1-0.1-0.1c0,0,0.4,0,0.4,0c0,0-0.1,0-0.2-0.1l-0.1,0c-0.3,0,0,0-0.3,0c0.2,0-0.1-0.1,0.3,0l0.3,0
							c0,0-0.4,0-0.5-0.1c0,0,0.1,0,0.2,0c-0.5,0,0,0-0.4-0.1c0.2,0,0-0.1,0.4-0.1c-0.2,0-0.3-0.1-0.2-0.1c0,0,0.1,0,0.2,0
							c0.2,0,0,0-0.1,0c0.1,0,0.3,0,0.5-0.1c-0.2,0-0.4,0-0.6,0c0.5,0-0.3-0.1,0.1-0.1c0.1,0,0.3,0,0.4,0c0.5,0-0.4-0.1-0.1-0.1
							l-0.4,0c0.3,0-0.2-0.1,0.2-0.1c-0.2,0,0.1-0.1-0.3,0c0.1,0,0.1,0,0.1,0l0.1-0.5c0.1,0-0.1-0.3,0.5-0.1c-0.1,0,0,0-0.2-0.1
							c-0.2-0.1,0.1,0.1,0,0c0,0-0.1-0.1-0.2-0.1c0.1,0,0.1,0,0.5,0.2c0.3,0-0.6-0.4-0.4-0.4c0.2,0.1,0.2,0.1,0.2,0.1l-0.3-0.2
							c0.1,0,0.4,0.1,0.6,0.3c0,0,0-0.1-0.2-0.2l0.3,0.1c-0.3-0.1-0.2-0.1-0.2-0.2l0.1,0c0.1,0.1,0.1,0,0,0
							c-0.2-0.1-0.2-0.1-0.3-0.1c-0.1-0.1-0.1-0.1-0.2-0.2c0.3,0.1,0.2,0.1,0.2,0c0.1,0-0.2-0.2-0.2-0.2c0.1,0.1,0,0,0.2,0.1
							c0,0-0.1-0.1,0,0c0.1,0,0.3,0.2,0.2,0c-0.1-0.1-0.5-0.3-0.3-0.2c0.1,0,0.2,0.1,0.2,0.2l0.2,0l-0.2-0.1c0.1,0,0.1,0,0.1,0.1
							c-0.2-0.2,0-0.1-0.3-0.3c0,0,0.2,0.1,0.2,0l0,0c0.1,0.1,0.1,0-0.1-0.1l0,0c0,0,0-0.1-0.1-0.2c0.2,0.1,0.9,0.5,0.6,0.3
							c0,0-0.4-0.3-0.5-0.4c0.2,0-0.1-0.3,0.3-0.1c-0.1-0.1-0.1-0.1-0.2-0.2c0.1,0-0.1-0.4,0.3-0.1c0.1,0.1,0.2,0.2,0.3,0.3
							c-0.2-0.2,0.2,0.1-0.1-0.1c-0.2-0.1-0.3-0.2-0.4-0.3c-0.1-0.1,0-0.2,0.2-0.1c-0.1-0.1-0.1-0.1-0.2-0.2
							c0.3,0.2,0.4,0.2,0.3,0.1l-0.2-0.1l0.2,0.1c-0.1-0.1-0.4-0.3-0.2-0.2c0.1,0.1,0.1,0.1,0.2,0.1c-0.1-0.1-0.4-0.4-0.2-0.3
							l0.3,0.2c0,0-0.2-0.2-0.3-0.2c0.2,0.1,0.2,0.1,0.5,0.2c-0.5-0.5-0.4-0.7-0.3-0.7l0.1,0.1c0.1,0.1-0.2-0.2-0.1-0.1
							c0.1,0.1,0.3,0.2,0.4,0.4c0.2,0.1-0.2-0.2-0.2-0.3c-0.2-0.1,0.1,0.1-0.1-0.1c-0.1-0.1,0.2,0.1-0.1-0.2
							c0.1,0.1,0.3,0.2,0.4,0.3l-0.1-0.1c0.3,0.2,0.5,0.5,0.9,0.8l0-0.1c0.3,0.2,0.3,0.3,0.4,0.3c-0.1-0.1-0.5-0.5-0.6-0.5
							c0-0.1-0.6-0.5-0.6-0.6c0.2,0.1,0,0.1,0.2,0.2c0.2,0.2-0.1-0.1,0-0.1c-0.1-0.1-0.4-0.3-0.4-0.4c0.1,0.1,0.2,0.2,0.3,0.2
							c-0.2-0.1-0.3-0.3-0.4-0.3c-0.4-0.3,0.1,0-0.1-0.2c0.3,0.2,0.6,0.5,0.7,0.6c-0.2-0.2-0.3-0.3-0.7-0.6c0.1,0,0.3,0.2,0.4,0.3
							c0.2,0.1-0.4-0.4,0.1,0l-0.2-0.2c0.1,0.1,0.2,0.1,0.3,0.2c0,0-0.3-0.3,0.1,0c0,0,0-0.1-0.3-0.2c-0.2-0.1,0.2,0.2-0.2-0.1
							c0.3,0.2,0-0.1-0.1-0.1l0.1,0.1c-0.1-0.1,0,0-0.2-0.2c0.1,0.1,0.2,0.1,0.2,0.2l-0.2-0.2c-0.1-0.1,0.4,0.3,0.4,0.2l0.2,0.2
							c0,0,0.2,0.1,0.1,0c-0.2-0.2-0.4-0.4-0.6-0.5c-0.1-0.1,0.2,0.2,0,0l0.2,0.2c0.1,0.1,0.3,0.2,0.4,0.2c-0.1-0.1-0.3-0.3-0.5-0.4
							c0,0,0.1,0.1,0.3,0.2c-0.1-0.1-0.2-0.2-0.3-0.3c0.1,0.1,0.4,0.2,0.6,0.3l0.3,0.3l0,0c0.3,0.2,0.2,0.1,0.5,0.4
							c0.1,0,0-0.1-0.1-0.1c-0.5-0.3-0.6-0.5-1.1-0.8c-0.1-0.1,1.1,0.7,0.4,0.2c-0.1-0.1-0.4-0.3-0.3-0.2c0.1,0-0.4-0.3-0.2-0.2
							c0.2,0.1,0.5,0.3,0.7,0.5c-0.1-0.1-0.1-0.1-0.1,0c0.2,0.1,0.4,0.3,0.5,0.3c0,0,0-0.1-0.3-0.2c-0.3-0.2,0,0-0.2-0.1
							c-0.1-0.1,0.3,0.2-0.1-0.1c0,0-0.2-0.1-0.4-0.2l-0.1-0.1l0.2,0.1c0.1,0-0.3-0.2-0.2-0.2l0.3,0.2c0.3,0.2-0.2,0,0.3,0.3
							c0,0-0.2-0.2-0.1-0.1c0,0,0,0,0.1,0.1c0,0,0.7,0.4,0.3,0.1c-0.1-0.1-0.2-0.1-0.3-0.2c0-0.1-0.2-0.2-0.3-0.2
							c0.4,0.2,0,0,0.4,0.2c-0.2-0.1-0.2-0.1,0.1,0.1c0.4,0.2-0.1,0,0.3,0.2c0,0,0.4,0.2,0.7,0.4c0,0-0.1-0.1-0.1-0.1
							c-0.3-0.1-0.3-0.1-0.5-0.3c0.1,0,0-0.1-0.3-0.2c0.1,0.1,0.4,0.2,0.4,0.2c-0.1-0.1,0-0.1,0.1-0.1c-0.4-0.2-0.1-0.1-0.5-0.2
							c-0.1,0-0.4-0.2-0.6-0.3c0,0,0.2,0.1,0.3,0.1c-0.2-0.1,0.4,0.2,0,0c0.1,0.1,0.5,0.2,0.9,0.4c-0.2-0.1,0.2,0.1,0.3,0.1
							c-0.2-0.1-0.3-0.2-0.4-0.2c0.4,0.1,0.1-0.1,0.1-0.2c0.2,0,0.6,0.2,0.7,0.2c0,0-0.4-0.1-0.2-0.1l0.1,0c-0.1,0,0.3,0-0.3-0.2
							l0.4,0.2c0,0-0.1,0-0.1-0.1c0.1,0,0.3,0.1,0.4,0.1c0.3,0.1,0-0.1,0-0.1l-0.3-0.1c-0.2-0.1,0.1-0.1,0-0.2l0.3,0.1l-0.1-0.1
							c0.2,0.1,0.4,0.1,0.2,0l0.6,0.3c-0.2,0-0.3-0.1-0.6-0.2c-0.2-0.1-0.2,0,0.1,0.1c0,0,0,0-0.1-0.1c0.4,0.1,0.3,0.1,0.6,0.2
							c0,0,0.1,0,0,0c0.2,0.1,0.2,0.1,0.2,0.1c-0.1-0.1-0.2-0.1-0.3-0.1c0.3,0.1,0.4,0.2,0.3,0.2c-0.4-0.1,0.2,0.1,0.1,0.2
							c-0.3-0.1-0.6-0.2-0.7-0.3c-0.2,0,0,0-0.2,0c0.2,0.1,0.6,0.2,0.7,0.3l-0.2-0.1c0.1,0.1,0.5,0.2,0.4,0.2
							c-0.1,0-0.2,0.1-0.3,0.2l-0.2-0.1c0.5,0.2,0.1,0.2,0.3,0.3c-0.3,0,0.1,0.3-0.3,0.1c0.1,0.2,0.2,0.4,0,0.5l-0.3-0.2
							c0.2,0.2-0.2-0.1-0.2,0c0.3,0.1,0.3,0.2,0.5,0.4c-0.3-0.1-0.1,0.1,0.1,0.3l-0.2-0.1c0.3,0.3,0,0.2-0.1,0.2
							c-0.1-0.1-0.3-0.2-0.3-0.1c0.3,0.3,0.3,0.3,0.4,0.5c0,0-0.1,0-0.3,0c0.3,0.5,0,0.4,0.1,0.7l-0.2-0.2c0.4,0.5-0.2,0.3,0,0.6
							l-0.4-0.3c-0.1-0.1,0,0.1,0.3,0.4c-0.1-0.1,0.1,0.2-0.2,0c-0.1,0,0.2,0.2,0.2,0.2c-0.2-0.1-0.2,0-0.1,0.1l0,0
							c-0.1-0.1-0.2-0.2-0.3-0.2c0.1,0.1-0.2,0,0.3,0.3c-0.3-0.1,0.1,0.3-0.3,0.1c0.1,0.1,0.2,0.1,0.2,0.2c0,0-0.3-0.1-0.1,0.1
							c-0.1,0-0.2-0.2-0.2-0.1c0,0,0.2,0.1,0.2,0.2c0.2,0.2-0.3,0-0.3,0.1c0.2,0.3,0.1,0.3,0,0.4l-0.1,0c0.3,0.1,0,0-0.1,0.1
							c0-0.2,0.1-0.5,0.1-0.7c0,0,0,0,0.3,0.1c-0.1,0-0.1,0.1-0.3,0.1c0.3,0.1-0.3,0.1,0.1,0.2c0,0,0,0-0.1,0
							c-0.3,0.1,0.1,0.1-0.2,0.2c0,0-0.1,0-0.2,0c-0.2,0,0.5,0.1-0.1,0.1c0,0,0.3,0,0.3,0c-0.2,0.2,0.1,0.4,0.2,0.6
							c-0.3,0.1-1,0-0.5,0.1c-0.1,0,0.2,0,0.1,0c0.2,0.1-0.6,0-0.3,0.1c0.3,0,0.2,0,0.4,0c-0.2,0.1-0.5,0.1-0.3,0.1l-0.2,0
							c0.5,0.1,0.2,0.2,0.8,0.3c0,0.1,0,0.1,0.1,0.2c-0.1-0.5-0.2-1-0.4-1.4c0.3,0.1,0.7,0.2,0.9,0.4c0.1,0.3,0.5,0.4,0.5,0.8
							c-0.3,0.4-0.3,0.4-0.1,0.3c-0.1,0-0.1,0.1-0.1,0.1c0.3-0.3,0.1,0,0.3-0.2c0,0.1,0.2,0.2,0.3,0.3c0,0-0.3,0.2-0.3,0.2l0.2-0.2
							l-0.1,0.1c0.1,0,0.2-0.1,0.3-0.2c0.5,0,0.1,0.8,0.4,1c-0.1,0.2,0.1,0.2,0.2,0.2c-0.2,0.5-0.3,1,0.1,0.9
							C1687.2,144.7,1686.4,145.4,1686.2,145.5z"/>
						<path fill="#202020" d="M1686.3,136.3c-0.2-0.1-0.3-0.1-0.5-0.2C1685.9,136.2,1686.1,136.2,1686.3,136.3z"/>
						<path fill="#202020" d="M1684.1,136.3c0.1,0-0.1,0-0.1,0c0,0-0.2-0.1-0.1,0C1683.9,136.3,1684,136.3,1684.1,136.3z"/>
						<path fill="#202020" d="M1683.9,136.4c-0.2-0.1-0.3-0.2-0.3-0.2L1683.9,136.4z"/>
						<path fill="#202020" d="M1683.2,136.1c-0.1-0.1-0.2-0.1-0.2-0.1C1683.1,136,1683.2,136,1683.2,136.1z"/>
						<path fill="#202020" d="M1683.6,136.3c0,0-0.1,0-0.2-0.1C1683.5,136.3,1683.3,136.1,1683.6,136.3z"/>
						<path fill="#202020" d="M1683,136.3C1683,136.3,1683.1,136.4,1683,136.3C1683.1,136.3,1682.8,136.1,1683,136.3z"/>
						<path fill="#202020" d="M1683.1,136.5C1683.1,136.5,1683.1,136.5,1683.1,136.5c-0.1,0-0.2-0.1-0.2-0.1L1683.1,136.5z"/>
						<polygon fill="#202020" points="1681.5,140.7 1681.5,140.7 1681.6,140.7 						"/>
						<path fill="#202020" d="M1681.4,142.1c0.1,0-0.2,0-0.2,0C1681.2,142.1,1681.5,142.2,1681.4,142.1z"/>
						<polygon fill="#202020" points="1682.9,143.2 1682.9,143.2 1683.2,143 						"/>
					</g>
				</g>
			</g>
			<g>
				<g>
					<path fill="#FFFFFF" d="M1685.9,125.2c-0.5,0.7-1.4,2-2.4,3.9c-0.4,2.7,1,4.7,2.1,6.9"/>
					<g>
						<path d="M1684.6,124.5c-1.2,1.6-2.5,3.3-2.7,5.4c-0.2,2.5,1.3,4.9,2.4,7c0.9,1.7,3.5,0.2,2.6-1.5c-0.9-1.8-1.9-3.4-2-5.4
							c0-1.1,1.6-2.9,2.3-3.8C1688.4,124.4,1685.8,122.9,1684.6,124.5L1684.6,124.5z"/>
					</g>
				</g>
				<g>
					<g>
						<path fill="#FFFFFF" d="M1709.3,135.1c3,3.8,3.7,11.8-0.9,14.4"/>
						<g>
							<path d="M1708,135.9c2.4,3.3,3.7,9.7-0.4,12.3c-1.6,1-0.1,3.6,1.5,2.6c5.4-3.5,4.9-11.7,1.4-16.4
								C1709.5,132.8,1706.9,134.3,1708,135.9L1708,135.9z"/>
						</g>
					</g>
					<g>
						<path fill="#FFFFFF" d="M1708.4,149.5c-0.1-0.3-0.2-0.6-0.3-0.9c-5.6-5.2-15.7-7-22.2-2.7"/>
						<g>
							<path d="M1709.9,149.1c-1.1-3.8-6.7-5.6-10.2-6.5c-4.9-1.3-10.2-0.6-14.5,2c-1.7,1-0.1,3.6,1.5,2.6c3.4-2.1,7-2.5,10.9-2
								c2.4,0.3,8.5,1.9,9.4,4.7C1707.5,151.7,1710.4,150.9,1709.9,149.1L1709.9,149.1z"/>
						</g>
					</g>
					<g>
						<path fill="#FFFFFF" d="M1705.7,161.3c-4.4-7-12.8-6.6-19.8-4.6c-1.3-0.3-2.5-1.6-3.1-2.7c-0.1-1.2,0-2.4-0.1-3.6
							c0.9-1.2,2.1-2.4,3.2-3.6"/>
						<g>
							<path d="M1707,160.5c-2.5-3.5-5.9-5.9-10.2-6.4c-2.2-0.2-4.3-0.2-6.5,0.1c-1.2,0.2-2.4,0.4-3.6,0.7c-2.3-1.1-3-2.6-2-4.6
								c0.7-0.8,1.5-1.6,2.2-2.4c1.3-1.4-0.8-3.5-2.1-2.1c-2.2,2.3-3.7,3.3-3.6,6.5c0.1,2.9,1.2,4.4,3.9,5.7c1.8,0.9,6-0.9,8-1.1
								c4.6-0.3,8.6,1.3,11.3,5.1C1705.5,163.6,1708.1,162.1,1707,160.5L1707,160.5z"/>
						</g>
					</g>
					<g>
						<path fill="#FFFFFF" d="M1709.3,135.1c-7.2-5.3-16.3-2.2-23.7,0.9"/>
						<g>
							<path d="M1710.1,133.8c-7.9-5.2-16.7-2.6-24.8,0.7c-1.8,0.7-1,3.6,0.8,2.9c7.3-3,15.3-5.8,22.5-1
								C1710.2,137.5,1711.7,134.9,1710.1,133.8L1710.1,133.8z"/>
						</g>
					</g>
					<g>
						<path fill="#FFFFFF" d="M1685.9,125.2c7.3-6.2,25.2-7.5,25.6,5.4c-0.8,1.5-0.8,3-2.3,4.5"/>
						<g>
							<path d="M1687,126.3c4-3.2,9.3-4.4,14.3-4c6.5,0.4,11,6.4,6.7,12.1c-1.2,1.5,1.4,3,2.6,1.5c4.6-6.1,1.5-13.1-5.2-15.8
								c-6.6-2.6-15.2-0.1-20.5,4.1C1683.4,125.4,1685.5,127.5,1687,126.3L1687,126.3z"/>
						</g>
					</g>
				</g>
			</g>
		</g>
	</g>
	<g opacity="0.2">
		<path fill="#FFFFFF" d="M1403.5,135.8c0,69.3,53.2,125.5,118.7,125.5c65.6,0,118.7-56.2,118.7-125.5
			c0-69.3-53.2-125.5-118.7-125.5C1456.7,10.3,1403.5,66.5,1403.5,135.8z"/>
	</g>
	<ellipse fill="#FFFFFF" stroke="#000000" stroke-width="3" cx="1521" cy="109.7" rx="57" ry="81.3"/>
	<g>
		<g>
			<g>
				<g>
					<path fill="#202020" d="M1521,48c-1.2,5.8-1.9,9.8-1.9,16.7c0,7.5,0,45.3,0,45.3s0,37.7,0,45.3c0,7,0.7,10.9,1.9,16.7
						c1.2-5.8,1.9-9.8,2-16.7c0-7.5,0-45.3,0-45.3s0-37.7,0-45.3C1522.9,57.8,1522.2,53.8,1521,48z"/>
				</g>
			</g>
		</g>
	</g>
	<g>
		<path d="M1488.8,218c0,0,0.9,0.7,2.5,2c0.4,0.3,0.8,0.7,1.3,1.1c0.5,0.3,1,0.7,1.6,1.1c0.6,0.4,1.2,0.8,1.8,1.3
			c0.6,0.5,1.4,0.8,2.1,1.3c0.7,0.4,1.5,0.9,2.3,1.3c0.8,0.4,1.7,0.8,2.6,1.2c0.4,0.2,0.9,0.4,1.3,0.6c0.5,0.2,0.9,0.3,1.4,0.5
			c1,0.3,1.9,0.7,2.9,1.1c2,0.5,4.1,1.2,6.3,1.5c2.2,0.5,4.4,0.6,6.6,0.8c2.2,0,4.5,0.1,6.7-0.2c2.2-0.1,4.3-0.6,6.4-0.9
			c1-0.3,2-0.6,3-0.8c0.5-0.1,1-0.2,1.5-0.4c0.5-0.2,0.9-0.3,1.4-0.5c0.9-0.3,1.8-0.7,2.7-1c0.8-0.4,1.6-0.8,2.4-1.1
			c0.8-0.4,1.5-0.7,2.2-1.1c0.7-0.4,1.3-0.8,1.9-1.1c0.6-0.3,1.2-0.7,1.7-1c0.5-0.3,1-0.7,1.4-0.9c1.7-1.1,2.6-1.8,2.6-1.8
			s-0.8,0.8-2.3,2.3c-0.4,0.4-0.8,0.7-1.2,1.2c-0.5,0.4-1,0.8-1.6,1.2c-0.6,0.4-1.2,0.9-1.8,1.4c-0.6,0.5-1.4,0.9-2.1,1.3
			c-0.8,0.5-1.5,0.9-2.4,1.4c-0.9,0.4-1.8,0.8-2.7,1.2c-0.5,0.2-0.9,0.4-1.4,0.6c-0.5,0.2-1,0.3-1.5,0.5c-1,0.4-2.1,0.7-3.1,1
			c-2.2,0.4-4.4,1.1-6.7,1.3c-2.3,0.3-4.7,0.3-7.1,0.3c-2.4-0.2-4.7-0.4-7-0.9c-2.3-0.3-4.5-1.2-6.6-1.8c-1-0.4-2-0.9-3-1.3
			c-0.5-0.2-1-0.4-1.4-0.7c-0.5-0.3-0.9-0.5-1.3-0.8c-0.9-0.5-1.7-1-2.6-1.5c-0.8-0.6-1.5-1.1-2.2-1.6c-0.7-0.5-1.4-1-2-1.5
			c-0.6-0.5-1.2-1.1-1.7-1.6c-0.5-0.5-1-0.9-1.5-1.4c-0.4-0.5-0.8-0.9-1.1-1.3C1489.5,218.9,1488.8,218,1488.8,218z"/>
	</g>
</g>
<g>
	<g>
		
			<linearGradient id="SVGID_17_" gradientUnits="userSpaceOnUse" x1="-1318.1289" y1="74.3833" x2="-1231.4893" y2="74.3833" gradientTransform="matrix(-1 0 0 1 806.207 0)">
			<stop  offset="0" style="stop-color:#231F20"/>
			<stop  offset="1" style="stop-color:#4A4B4C"/>
		</linearGradient>
		<polygon fill="url(#SVGID_17_)" points="2082.3,121.1 2037.7,82.4 2124.3,27.7 		"/>
		<g>
			<path d="M2083.4,120c-14.9-12.9-29.7-25.8-44.6-38.8c-0.1,0.8-0.2,1.6-0.3,2.4c28.9-18.2,57.8-36.5,86.6-54.7
				c-0.7-0.7-1.4-1.4-2.1-2.1c-14,31.1-28,62.3-42,93.4c-0.8,1.7,1.8,3.3,2.6,1.5c14-31.1,28-62.3,42-93.4c0.6-1.3-0.7-2.9-2.1-2.1
				c-28.9,18.2-57.8,36.5-86.6,54.7c-0.8,0.5-1.1,1.7-0.3,2.4c14.9,12.9,29.7,25.8,44.6,38.8C2082.7,123.4,2084.8,121.3,2083.4,120z
				"/>
		</g>
	</g>
	<g opacity="0.67">
		<polygon fill="#FFFFFF" points="2056.3,153.1 2011.7,114.4 2098.3,59.7 		"/>
	</g>
	<g>
		<linearGradient id="SVGID_18_" gradientUnits="userSpaceOnUse" x1="2079.0266" y1="164.5" x2="2118.7986" y2="164.5">
			<stop  offset="0" style="stop-color:#231F20"/>
			<stop  offset="1" style="stop-color:#4A4B4C"/>
		</linearGradient>
		<path fill="url(#SVGID_18_)" d="M2118.6,161.2c1,6.3-3.2,12.2-9.5,13.2l-16.8,2.8c-6.3,1-12.2-3.2-13.2-9.5l0,0
			c-1-6.3,3.2-12.2,9.5-13.2l16.8-2.8C2111.7,150.7,2117.6,154.9,2118.6,161.2L2118.6,161.2z"/>
		<g>
			<path d="M2117.7,161.5c0.6,6-2.5,11.6-8.9,12.7c-2.9,0.5-5.8,1-8.7,1.5c-2.4,0.4-4.8,0.8-7.1,1.2c-6.3,1.1-11.4-3.4-12.7-9.3
				c-2.5-11.2,9.9-12.9,17.7-14.1c2.4-0.4,4.8-0.8,7.1-1.2C2111.3,151.1,2116.3,155.6,2117.7,161.5c0.1,0.5,2,0,1.9-0.5
				c-2.8-12.2-14.3-9.5-23.4-8c-8.8,1.5-19.3,3.4-18,15.1c1.3,12.4,15.3,9.4,23.4,8c8.8-1.5,19.3-3.4,18-15.1
				C2119.6,160.5,2117.6,160.9,2117.7,161.5z"/>
		</g>
	</g>
	<g>
		<linearGradient id="SVGID_19_" gradientUnits="userSpaceOnUse" x1="1811.0347" y1="70.3833" x2="1897.6743" y2="70.3833">
			<stop  offset="0" style="stop-color:#231F20"/>
			<stop  offset="1" style="stop-color:#4A4B4C"/>
		</linearGradient>
		<polygon fill="url(#SVGID_19_)" points="1853.1,117.1 1897.7,78.4 1811,23.7 		"/>
		<g>
			<path d="M1854.1,118.2c14.9-12.9,29.7-25.8,44.6-38.8c0.8-0.7,0.5-1.9-0.3-2.4c-28.9-18.2-57.8-36.5-86.6-54.7
				c-1.4-0.9-2.6,0.8-2.1,2.1c14,31.1,28,62.3,42,93.4c0.8,1.8,3.4,0.2,2.6-1.5c-14-31.1-28-62.3-42-93.4c-0.7,0.7-1.4,1.4-2.1,2.1
				c28.9,18.2,57.8,36.5,86.6,54.7c-0.1-0.8-0.2-1.6-0.3-2.4c-14.9,12.9-29.7,25.8-44.6,38.8
				C1850.5,117.3,1852.7,119.4,1854.1,118.2z"/>
		</g>
	</g>
	<g opacity="0.67">
		<polygon fill="#FFFFFF" points="1879.1,149.1 1923.7,110.4 1837,55.7 		"/>
	</g>
	<ellipse fill="#FFFFFF" stroke="#000000" stroke-width="4" cx="1968.2" cy="135.5" rx="124.5" ry="127.5"/>
	<g>
		<linearGradient id="SVGID_20_" gradientUnits="userSpaceOnUse" x1="1843.7456" y1="135.5" x2="2092.7446" y2="135.5">
			<stop  offset="0" style="stop-color:#231F20"/>
			<stop  offset="1" style="stop-color:#4A4B4C"/>
		</linearGradient>
		<ellipse fill="url(#SVGID_20_)" cx="1968.2" cy="135.5" rx="124.5" ry="127.5"/>
		<g>
			<path d="M1842.8,135.8c0.2,44.9,23.5,87.1,62.1,110.4c36.6,22,83,22.5,120.7,3c38.5-20,63.8-59.7,67.7-102.6
				c4.1-44.9-16.4-89.6-52.9-116c-34.4-24.9-81-29.8-119.9-13.2c-40.2,17.2-68.8,54.3-76,97.3
				C1843.3,121.7,1842.8,128.7,1842.8,135.8c0,0.3,1.9,0,1.9-0.5c0.3-46.9,25.7-91,67.3-113.1C1954.7-0.6,2007.5,6,2044.8,36
				c36.4,29.3,53,77.7,44.9,123.4c-8.1,45.8-42.1,84.8-86.7,98.3c-38.3,11.6-80.3,2.3-111.2-22.6c-30-24.1-46.8-61.5-47-99.8
				C1844.7,134.9,1842.8,135.2,1842.8,135.8z"/>
		</g>
	</g>
	<g>
		<g>
			<g>
				<path fill="#FFFFFF" d="M2133.2,123c0.6-8.8,4.7-19.7-2.7-27c-3.4-1.6-9-4-11.1,0.9c4,18.1-4.1,33.2-9,49.4
					c-2.1,2.6-6.9,1.5-8.1,5.4c-2,12,20.2,30.7,26.6,15.6c8.2,1.8,19,3.5,23.5-5.7c0-1.2,0-2.4,0.5-3.6"/>
				<g>
					<path d="M2134.7,123c0.7-7.5,3-15.2,0.4-22.6c-1.7-4.8-6.8-8.5-12.1-7.8c-2.4,0.3-3.8,1.5-4.9,3.6c-0.5,0.8,0.1,2.2,0.2,3
						c0.7,3.3,0.7,6.7,0.6,10c-0.3,10.5-4.5,20.6-7.9,30.4c-0.6,1.8-1.1,5.6-2.9,6.7c-1.1,0.7-2.6,0.8-3.8,1.4
						c-2.1,1.1-3.3,2.6-3.6,5c-0.6,5.1,2.9,10.3,6,14c6.1,7,18.4,12.3,23.5,1.5c-0.6,0.2-1.1,0.5-1.7,0.7c5.4,1.1,10.8,2,16.2,0.8
						c2.5-0.5,4.7-2,6.6-3.7c2.5-2.4,2.1-4.5,3.1-7.4c0.6-1.8-2.3-2.6-2.9-0.8c-0.7,2.3-0.6,4.1-2.3,6.1c-1.6,1.9-4.1,2.7-6.4,3.2
						c-4.4,0.9-9.2-0.2-13.5-1.1c-0.6-0.1-1.4,0.1-1.7,0.7c-5,10.6-16.8,1.2-21.1-5.1c-2.6-3.8-5-9.9,0.8-11.8
						c4.9-1.6,5-4.8,6.6-9.4c4.2-12.5,8.9-24.7,7.8-38.1c-0.3-3.7-0.8-7.7,4.4-6.4c4,1,5.9,4.1,6.9,7.9c1.6,6.1-0.7,13-1.3,19.2
						C2131.6,124.9,2134.6,124.9,2134.7,123L2134.7,123z"/>
				</g>
			</g>
			<g>
				<ellipse fill="#FFFFFF" cx="2141.6" cy="144.7" rx="17.3" ry="21"/>
				<g>
					<path fill="#FFFFFF" d="M2157.4,144.7c-0.3,9.3-5.6,19.1-15.8,19.5c-10.2,0.4-15.6-10.9-15.8-19.5c-0.3-9.3,6-19.1,15.8-19.5
						C2151.8,124.7,2157.2,136.1,2157.4,144.7c0.1,1.9,3.1,1.9,3,0c-0.3-11-6.9-22-18.8-22.5c-11.9-0.5-18.5,12.3-18.8,22.5
						c-0.3,11,7.4,22,18.8,22.5c11.9,0.5,18.5-12.3,18.8-22.5C2160.5,142.7,2157.5,142.7,2157.4,144.7z"/>
				</g>
			</g>
		</g>
		<g>
			<g>
				<path fill="#1A1A1A" d="M2154.1,162.3c1.7-1.3,3.1-3,3.9-5c0.4-1.1,0.6-2.2,0.7-3.4c0-1.4-1-2.5-1.5-3.8c-0.7-1.8-3.6-1-2.9,0.8
					c0.3,0.8,0.7,1.6,1.1,2.4c0.5,0.9,0.2,1.7-0.1,2.6c-0.5,1.8-1.9,3.2-3.3,4.3C2150.4,161.4,2152.6,163.5,2154.1,162.3
					L2154.1,162.3z"/>
			</g>
		</g>
		<g>
			<g>
				<g>
					<g>
						<path fill="#202020" d="M2133.5,136.2c-0.1-0.1-0.3-0.1-0.1-0.1C2133.5,136.2,2133.6,136.3,2133.5,136.2z"/>
						<path fill="#202020" d="M2133.4,145.5c-0.8,0.5-0.2-0.2-0.7,0c0,0,0.4-0.3,0.3-0.3c-0.6,0.4-0.5-0.1-0.2-0.6l0.1-0.1
							c0.1-0.1-0.3,0.2-0.3,0.1c0.1-0.1,0.1-0.1,0.2-0.2c-0.2,0.2-0.1,0-0.3,0.2c0.1-0.1,0.2-0.2,0.3-0.3l-0.3,0.2
							c-0.6,0.5-0.1-0.1-0.4,0.1c0.1,0,0.1-0.1,0.2-0.1c-0.4,0.2-0.5,0-0.7,0.1c0.1-0.1,0.2-0.2,0.3-0.3c-0.3,0.2-0.3,0.3-0.4,0.3
							c0.2-0.2-0.3,0.2-0.2,0l0.1,0c-0.3,0.2,0.1-0.2-0.2,0.1l0.2-0.2c-0.4,0.3,0.2-0.2,0-0.1l-0.1,0.1c-0.1,0.1,0.1-0.1,0-0.1l0,0
							c-0.1,0,0.1-0.2-0.2,0.1c0.2-0.2,0.1-0.1,0.5-0.4c-0.4,0.1-0.5-0.1-0.6-0.2c0.1-0.1,0.1-0.2,0.2-0.3c-0.1,0-0.1,0-0.3,0.1
							c0,0,0.1-0.1,0.2-0.2c0.1-0.1-0.3,0.2-0.2,0.1c0.1-0.1,0.2-0.1,0.3-0.2c-0.3,0.2-0.2,0.1-0.3,0.1c0.1,0,0.1-0.1,0.2-0.1
							c-0.3,0.2,0-0.1-0.2,0l0.2-0.1c0.2-0.2-0.4,0.3-0.3,0.1c0.1,0,0.1-0.1,0.2-0.1c-0.3,0.2-0.3,0.1-0.4,0.1c0,0,0.1-0.1,0.1-0.1
							c-0.1,0,0-0.1-0.2-0.1c0.1-0.1,0.4-0.3,0.3-0.3c-0.4,0.3-0.2,0-0.6,0.4c0-0.1,0.1-0.2,0-0.2c0.1-0.1,0.4-0.3,0.5-0.3l0.2-0.2
							c0.1-0.1,0,0.1,0.1-0.1c0,0-0.2,0.1-0.2,0c-0.2,0.1-0.7,0.4-0.8,0.4c0.2-0.1,0.4-0.3,0.5-0.3l-0.7,0.4c0,0,0.3-0.2,0.2-0.2
							c-0.1,0.1-0.2,0.1-0.2,0.2c0,0-0.1,0,0.2-0.3c0.1-0.1,0.1,0,0.2-0.1c0,0-0.1,0.1-0.2,0l0,0c0-0.1-0.2,0.1-0.4,0.2
							c0,0,0.2-0.2,0.1-0.1c-0.2,0.1-0.3,0.1-0.3,0.1l-0.2-0.6c0,0,0,0,0,0c0.1,0,0.2,0,0.3,0c-0.3-0.1-0.4-0.1-0.6-0.2
							c-0.2,0,0.4,0.1,0.3,0.1c0.3,0-0.4-0.2,0-0.2c0,0-0.3,0-0.2,0c0,0,0.3,0,0.2,0c0.2,0-0.1,0-0.1-0.1c-0.1,0,0.1,0,0.1,0
							c-0.1,0-0.4-0.2-0.2-0.2c-0.1,0-0.4-0.1-0.4-0.1l0.3,0c0.2,0,0-0.1,0.2,0c-0.3-0.1,0.3,0.1,0,0.1c0.2,0-0.4-0.1-0.1-0.1
							c0,0-0.3-0.1-0.1-0.1c0,0,0.4,0,0.4,0c0,0-0.1,0-0.2-0.1l-0.1,0c-0.3,0,0,0-0.3,0c0.2,0-0.1-0.1,0.3,0l0.3,0
							c0,0-0.4,0-0.5-0.1c0,0,0.1,0,0.2,0c-0.5,0,0,0-0.4-0.1c0.2,0,0-0.1,0.4-0.1c-0.2,0-0.3-0.1-0.2-0.1c0,0,0.1,0,0.2,0
							c0.2,0,0,0-0.1,0c0.1,0,0.3,0,0.5-0.1c-0.2,0-0.4,0-0.6,0c0.5,0-0.3-0.1,0.1-0.1c0.1,0,0.3,0,0.4,0c0.5,0-0.4-0.1-0.1-0.1
							l-0.4,0c0.3,0-0.2-0.1,0.2-0.1c-0.2,0,0.1-0.1-0.3,0c0.1,0,0.1,0,0.1,0l0.1-0.5c0.1,0-0.1-0.3,0.5-0.1c-0.1,0,0,0-0.2-0.1
							c-0.2-0.1,0.1,0.1,0,0c0,0-0.1-0.1-0.2-0.1c0.1,0,0.1,0,0.5,0.2c0.3,0-0.6-0.4-0.4-0.4c0.2,0.1,0.2,0.1,0.2,0.1l-0.3-0.2
							c0.1,0,0.4,0.1,0.6,0.3c0,0,0-0.1-0.2-0.2l0.3,0.1c-0.3-0.1-0.2-0.1-0.2-0.2l0.1,0c0.1,0.1,0.1,0,0,0
							c-0.2-0.1-0.2-0.1-0.3-0.1c-0.1-0.1-0.1-0.1-0.2-0.2c0.3,0.1,0.2,0.1,0.2,0c0.1,0-0.2-0.2-0.2-0.2c0.1,0.1,0,0,0.2,0.1
							c0,0-0.1-0.1,0,0c0.1,0,0.3,0.2,0.2,0c-0.1-0.1-0.5-0.3-0.3-0.2c0.1,0,0.2,0.1,0.2,0.2l0.2,0l-0.2-0.1c0.1,0,0.1,0,0.1,0.1
							c-0.2-0.2,0-0.1-0.3-0.3c0,0,0.2,0.1,0.2,0l0,0c0.1,0.1,0.1,0-0.1-0.1l0,0c0,0,0-0.1-0.1-0.2c0.2,0.1,0.9,0.5,0.6,0.3
							c0,0-0.4-0.3-0.5-0.4c0.2,0-0.1-0.3,0.3-0.1c-0.1-0.1-0.1-0.1-0.2-0.2c0.1,0-0.1-0.4,0.3-0.1c0.1,0.1,0.2,0.2,0.3,0.3
							c-0.2-0.2,0.2,0.1-0.1-0.1c-0.2-0.1-0.3-0.2-0.4-0.3c-0.1-0.1,0-0.2,0.2-0.1c-0.1-0.1-0.1-0.1-0.2-0.2
							c0.3,0.2,0.4,0.2,0.3,0.1l-0.2-0.1l0.2,0.1c-0.1-0.1-0.4-0.3-0.2-0.2c0.1,0.1,0.1,0.1,0.2,0.1c-0.1-0.1-0.4-0.4-0.2-0.3
							l0.3,0.2c0,0-0.2-0.2-0.3-0.2c0.2,0.1,0.2,0.1,0.5,0.2c-0.5-0.5-0.4-0.7-0.3-0.7l0.1,0.1c0.1,0.1-0.2-0.2-0.1-0.1
							c0.1,0.1,0.3,0.2,0.4,0.4c0.2,0.1-0.2-0.2-0.2-0.3c-0.2-0.1,0.1,0.1-0.1-0.1c-0.1-0.1,0.2,0.1-0.1-0.2
							c0.1,0.1,0.3,0.2,0.4,0.3l-0.1-0.1c0.3,0.2,0.5,0.5,0.9,0.8l0-0.1c0.3,0.2,0.3,0.3,0.4,0.3c-0.1-0.1-0.5-0.5-0.6-0.5
							c0-0.1-0.6-0.5-0.6-0.6c0.2,0.1,0,0.1,0.2,0.2c0.2,0.2-0.1-0.1,0-0.1c-0.1-0.1-0.4-0.3-0.4-0.4c0.1,0.1,0.2,0.2,0.3,0.2
							c-0.2-0.1-0.3-0.3-0.4-0.3c-0.4-0.3,0.1,0-0.1-0.2c0.3,0.2,0.6,0.5,0.7,0.6c-0.2-0.2-0.3-0.3-0.7-0.6c0.1,0,0.3,0.2,0.4,0.3
							c0.2,0.1-0.4-0.4,0.1,0l-0.2-0.2c0.1,0.1,0.2,0.1,0.3,0.2c0,0-0.3-0.3,0.1,0c0,0,0-0.1-0.3-0.2c-0.2-0.1,0.2,0.2-0.2-0.1
							c0.3,0.2,0-0.1-0.1-0.1l0.1,0.1c-0.1-0.1,0,0-0.2-0.2c0.1,0.1,0.2,0.1,0.2,0.2l-0.2-0.2c-0.1-0.1,0.4,0.3,0.4,0.2l0.2,0.2
							c0,0,0.2,0.1,0.1,0c-0.2-0.2-0.4-0.4-0.6-0.5c-0.1-0.1,0.2,0.2,0,0l0.2,0.2c0.1,0.1,0.3,0.2,0.4,0.2c-0.1-0.1-0.3-0.3-0.5-0.4
							c0,0,0.1,0.1,0.3,0.2c-0.1-0.1-0.2-0.2-0.3-0.3c0.1,0.1,0.4,0.2,0.6,0.3l0.3,0.3l0,0c0.3,0.2,0.2,0.1,0.5,0.4
							c0.1,0,0-0.1-0.1-0.1c-0.5-0.3-0.6-0.5-1.1-0.8c-0.1-0.1,1.1,0.7,0.4,0.2c-0.1-0.1-0.4-0.3-0.3-0.2c0.1,0-0.4-0.3-0.2-0.2
							c0.2,0.1,0.5,0.3,0.7,0.5c-0.1-0.1-0.1-0.1-0.1,0c0.2,0.1,0.4,0.3,0.5,0.3c0,0,0-0.1-0.3-0.2c-0.3-0.2,0,0-0.2-0.1
							c-0.1-0.1,0.3,0.2-0.1-0.1c0,0-0.2-0.1-0.4-0.2l-0.1-0.1l0.2,0.1c0.1,0-0.3-0.2-0.2-0.2l0.3,0.2c0.3,0.2-0.2,0,0.3,0.3
							c0,0-0.2-0.2-0.1-0.1c0,0,0,0,0.1,0.1c0,0,0.7,0.4,0.3,0.1c-0.1-0.1-0.2-0.1-0.3-0.2c0-0.1-0.2-0.2-0.3-0.2
							c0.4,0.2,0,0,0.4,0.2c-0.2-0.1-0.2-0.1,0.1,0.1c0.4,0.2-0.1,0,0.3,0.2c0,0,0.4,0.2,0.7,0.4c0,0-0.1-0.1-0.1-0.1
							c-0.3-0.1-0.3-0.1-0.5-0.3c0.1,0,0-0.1-0.3-0.2c0.1,0.1,0.4,0.2,0.4,0.2c-0.1-0.1,0-0.1,0.1-0.1c-0.4-0.2-0.1-0.1-0.5-0.2
							c-0.1,0-0.4-0.2-0.6-0.3c0,0,0.2,0.1,0.3,0.1c-0.2-0.1,0.4,0.2,0,0c0.1,0.1,0.5,0.2,0.9,0.4c-0.2-0.1,0.2,0.1,0.3,0.1
							c-0.2-0.1-0.3-0.2-0.4-0.2c0.4,0.1,0.1-0.1,0.1-0.2c0.2,0,0.6,0.2,0.7,0.2c0,0-0.4-0.1-0.2-0.1l0.1,0c-0.1,0,0.3,0-0.3-0.2
							l0.4,0.2c0,0-0.1,0-0.1-0.1c0.1,0,0.3,0.1,0.4,0.1c0.3,0.1,0-0.1,0-0.1l-0.3-0.1c-0.2-0.1,0.1-0.1,0-0.2l0.3,0.1l-0.1-0.1
							c0.2,0.1,0.4,0.1,0.2,0l0.6,0.3c-0.2,0-0.3-0.1-0.6-0.2c-0.2-0.1-0.2,0,0.1,0.1c0,0,0,0-0.1-0.1c0.4,0.1,0.3,0.1,0.6,0.2
							c0,0,0.1,0,0,0c0.2,0.1,0.2,0.1,0.2,0.1c-0.1-0.1-0.2-0.1-0.3-0.1c0.3,0.1,0.4,0.2,0.3,0.2c-0.4-0.1,0.2,0.1,0.1,0.2
							c-0.3-0.1-0.6-0.2-0.7-0.3c-0.2,0,0,0-0.2,0c0.2,0.1,0.6,0.2,0.7,0.3l-0.2-0.1c0.1,0.1,0.5,0.2,0.4,0.2
							c-0.1,0-0.2,0.1-0.3,0.2l-0.2-0.1c0.5,0.2,0.1,0.2,0.3,0.3c-0.3,0,0.1,0.3-0.3,0.1c0.1,0.2,0.2,0.4,0,0.5l-0.3-0.2
							c0.2,0.2-0.2-0.1-0.2,0c0.3,0.1,0.3,0.2,0.5,0.4c-0.3-0.1-0.1,0.1,0.1,0.3l-0.2-0.1c0.3,0.3,0,0.2-0.1,0.2
							c-0.1-0.1-0.3-0.2-0.3-0.1c0.3,0.3,0.3,0.3,0.4,0.5c0,0-0.1,0-0.3,0c0.3,0.5,0,0.4,0.1,0.7l-0.2-0.2c0.4,0.5-0.2,0.3,0,0.6
							l-0.4-0.3c-0.1-0.1,0,0.1,0.3,0.4c-0.1-0.1,0.1,0.2-0.2,0c-0.1,0,0.2,0.2,0.2,0.2c-0.2-0.1-0.2,0-0.1,0.1l0,0
							c-0.1-0.1-0.2-0.2-0.3-0.2c0.1,0.1-0.2,0,0.3,0.3c-0.3-0.1,0.1,0.3-0.3,0.1c0.1,0.1,0.2,0.1,0.2,0.2c0,0-0.3-0.1-0.1,0.1
							c-0.1,0-0.2-0.2-0.2-0.1c0,0,0.2,0.1,0.2,0.2c0.2,0.2-0.3,0-0.3,0.1c0.2,0.3,0.1,0.3,0,0.4l-0.1,0c0.3,0.1,0,0-0.1,0.1
							c0-0.2,0.1-0.5,0.1-0.7c0,0,0,0,0.3,0.1c-0.1,0-0.1,0.1-0.3,0.1c0.3,0.1-0.3,0.1,0.1,0.2c0,0,0,0-0.1,0
							c-0.3,0.1,0.1,0.1-0.2,0.2c-0.1,0-0.1,0-0.2,0c-0.2,0,0.5,0.1-0.1,0.1c0,0,0.3,0,0.3,0c-0.2,0.2,0.1,0.4,0.2,0.6
							c-0.3,0.1-1,0-0.5,0.1c-0.1,0,0.2,0,0.1,0c0.2,0.1-0.6,0-0.3,0.1c0.3,0,0.2,0,0.4,0c-0.2,0.1-0.5,0.1-0.3,0.1l-0.2,0
							c0.5,0.1,0.2,0.2,0.8,0.3c0,0.1,0,0.1,0.1,0.2c-0.1-0.5-0.2-1-0.4-1.4c0.3,0.1,0.7,0.2,0.9,0.4c0.1,0.3,0.5,0.4,0.5,0.8
							c-0.3,0.4-0.3,0.4-0.1,0.3c-0.1,0-0.1,0.1-0.1,0.1c0.3-0.3,0.1,0,0.3-0.2c0,0.1,0.2,0.2,0.3,0.3c0,0-0.3,0.2-0.3,0.2l0.2-0.2
							l-0.1,0.1c0.1,0,0.2-0.1,0.3-0.2c0.5,0,0.1,0.8,0.4,1c-0.1,0.2,0.1,0.2,0.2,0.2c-0.2,0.5-0.3,1,0.1,0.9
							C2134.4,144.7,2133.7,145.4,2133.4,145.5z"/>
						<path fill="#202020" d="M2133.5,136.3c-0.2-0.1-0.3-0.1-0.5-0.2C2133.2,136.2,2133.4,136.2,2133.5,136.3z"/>
						<path fill="#202020" d="M2131.4,136.3c0.1,0-0.1,0-0.1,0c0,0-0.2-0.1-0.1,0C2131.2,136.3,2131.3,136.3,2131.4,136.3z"/>
						<path fill="#202020" d="M2131.2,136.4c-0.2-0.1-0.3-0.2-0.3-0.2L2131.2,136.4z"/>
						<path fill="#202020" d="M2130.5,136.1c-0.1-0.1-0.2-0.1-0.2-0.1C2130.4,136,2130.5,136,2130.5,136.1z"/>
						<path fill="#202020" d="M2130.9,136.3c0,0-0.1,0-0.2-0.1C2130.8,136.3,2130.6,136.1,2130.9,136.3z"/>
						<path fill="#202020" d="M2130.3,136.3C2130.3,136.3,2130.4,136.4,2130.3,136.3C2130.4,136.3,2130.1,136.1,2130.3,136.3z"/>
						<path fill="#202020" d="M2130.4,136.5C2130.4,136.5,2130.4,136.5,2130.4,136.5c-0.1,0-0.2-0.1-0.2-0.1L2130.4,136.5z"/>
						<polygon fill="#202020" points="2128.8,140.7 2128.7,140.7 2128.9,140.7 						"/>
						<path fill="#202020" d="M2128.7,142.1c0.1,0-0.2,0-0.2,0C2128.5,142.1,2128.8,142.2,2128.7,142.1z"/>
						<polygon fill="#202020" points="2130.2,143.2 2130.2,143.2 2130.5,143 						"/>
					</g>
				</g>
			</g>
			<g>
				<g>
					<path fill="#FFFFFF" d="M2133.2,125.2c-0.5,0.7-1.4,2-2.4,3.9c-0.4,2.7,1,4.7,2.1,6.9"/>
					<g>
						<path d="M2131.9,124.5c-1.2,1.6-2.5,3.3-2.7,5.4c-0.2,2.5,1.3,4.9,2.4,7c0.9,1.7,3.5,0.2,2.6-1.5c-0.9-1.8-1.9-3.4-2-5.4
							c0-1.1,1.6-2.9,2.3-3.8C2135.7,124.4,2133.1,122.9,2131.9,124.5L2131.9,124.5z"/>
					</g>
				</g>
				<g>
					<g>
						<path fill="#FFFFFF" d="M2156.6,135.1c3,3.8,3.7,11.8-0.9,14.4"/>
						<g>
							<path d="M2155.3,135.9c2.4,3.3,3.7,9.7-0.4,12.3c-1.6,1-0.1,3.6,1.5,2.6c5.4-3.5,4.9-11.7,1.4-16.4
								C2156.8,132.8,2154.2,134.3,2155.3,135.9L2155.3,135.9z"/>
						</g>
					</g>
					<g>
						<path fill="#FFFFFF" d="M2155.7,149.5c-0.1-0.3-0.2-0.6-0.3-0.9c-5.6-5.2-15.7-7-22.2-2.7"/>
						<g>
							<path d="M2157.1,149.1c-1.1-3.8-6.7-5.6-10.2-6.5c-4.9-1.3-10.2-0.6-14.5,2c-1.7,1-0.1,3.6,1.5,2.6c3.4-2.1,7-2.5,10.9-2
								c2.4,0.3,8.5,1.9,9.4,4.7C2154.8,151.7,2157.7,150.9,2157.1,149.1L2157.1,149.1z"/>
						</g>
					</g>
					<g>
						<path fill="#FFFFFF" d="M2153,161.3c-4.4-7-12.8-6.6-19.8-4.6c-1.3-0.3-2.5-1.6-3.1-2.7c-0.1-1.2,0-2.4-0.1-3.6
							c0.9-1.2,2.1-2.4,3.2-3.6"/>
						<g>
							<path d="M2154.3,160.5c-2.5-3.5-5.9-5.9-10.2-6.4c-2.2-0.2-4.3-0.2-6.5,0.1c-1.2,0.2-2.4,0.4-3.6,0.7c-2.3-1.1-3-2.6-2-4.6
								c0.7-0.8,1.5-1.6,2.2-2.4c1.3-1.4-0.8-3.5-2.1-2.1c-2.2,2.3-3.7,3.3-3.6,6.5c0.1,2.9,1.2,4.4,3.9,5.7c1.8,0.9,6-0.9,8-1.1
								c4.6-0.3,8.6,1.3,11.3,5.1C2152.8,163.6,2155.4,162.1,2154.3,160.5L2154.3,160.5z"/>
						</g>
					</g>
					<g>
						<path fill="#FFFFFF" d="M2156.6,135.1c-7.2-5.3-16.3-2.2-23.7,0.9"/>
						<g>
							<path d="M2157.4,133.8c-7.9-5.2-16.7-2.6-24.8,0.7c-1.8,0.7-1,3.6,0.8,2.9c7.3-3,15.3-5.8,22.5-1
								C2157.5,137.5,2159,134.9,2157.4,133.8L2157.4,133.8z"/>
						</g>
					</g>
					<g>
						<path fill="#FFFFFF" d="M2133.2,125.2c7.3-6.2,25.2-7.5,25.6,5.4c-0.8,1.5-0.8,3-2.3,4.5"/>
						<g>
							<path d="M2134.3,126.3c4-3.2,9.3-4.4,14.3-4c6.5,0.4,11,6.4,6.7,12.1c-1.2,1.5,1.4,3,2.6,1.5c4.6-6.1,1.5-13.1-5.2-15.8
								c-6.6-2.6-15.2-0.1-20.5,4.1C2130.6,125.4,2132.8,127.5,2134.3,126.3L2134.3,126.3z"/>
						</g>
					</g>
				</g>
			</g>
		</g>
	</g>
	<g opacity="0.2">
		<path fill="#FFFFFF" d="M1850.8,135.8c0,69.3,53.2,125.5,118.7,125.5c65.6,0,118.7-56.2,118.7-125.5
			c0-69.3-53.2-125.5-118.7-125.5C1904,10.3,1850.8,66.5,1850.8,135.8z"/>
	</g>
	<ellipse fill="#FFFFFF" stroke="#000000" stroke-width="3" cx="1968.2" cy="109.7" rx="57" ry="81.3"/>
	<g>
		<g>
			<g>
				<g>
					<path fill="#202020" d="M1968.2,48c-1.2,5.8-1.9,9.8-1.9,16.7c0,7.5,0,45.3,0,45.3s0,37.7,0,45.3c0,7,0.7,10.9,1.9,16.7
						c1.2-5.8,1.9-9.8,2-16.7c0-7.5,0-45.3,0-45.3s0-37.7,0-45.3C1970.2,57.8,1969.5,53.8,1968.2,48z"/>
				</g>
			</g>
		</g>
	</g>
	<g>
		<path d="M1936,218c0,0,0.9,0.7,2.5,2c0.4,0.3,0.8,0.7,1.3,1.1c0.5,0.3,1,0.7,1.6,1.1c0.6,0.4,1.2,0.8,1.8,1.3
			c0.6,0.5,1.4,0.8,2.1,1.3c0.7,0.4,1.5,0.9,2.3,1.3c0.8,0.4,1.7,0.8,2.6,1.2c0.4,0.2,0.9,0.4,1.3,0.6c0.5,0.2,0.9,0.3,1.4,0.5
			c1,0.3,1.9,0.7,2.9,1.1c2,0.5,4.1,1.2,6.3,1.5c2.2,0.5,4.4,0.6,6.6,0.8c2.2,0,4.5,0.1,6.7-0.2c2.2-0.1,4.3-0.6,6.4-0.9
			c1-0.3,2-0.6,3-0.8c0.5-0.1,1-0.2,1.5-0.4c0.5-0.2,0.9-0.3,1.4-0.5c0.9-0.3,1.8-0.7,2.7-1c0.8-0.4,1.6-0.8,2.4-1.1
			c0.8-0.4,1.5-0.7,2.2-1.1c0.7-0.4,1.3-0.8,1.9-1.1c0.6-0.3,1.2-0.7,1.7-1c0.5-0.3,1-0.7,1.4-0.9c1.7-1.1,2.6-1.8,2.6-1.8
			s-0.8,0.8-2.3,2.3c-0.4,0.4-0.8,0.7-1.2,1.2c-0.5,0.4-1,0.8-1.6,1.2c-0.6,0.4-1.2,0.9-1.8,1.4c-0.6,0.5-1.4,0.9-2.1,1.3
			c-0.8,0.5-1.5,0.9-2.4,1.4c-0.9,0.4-1.8,0.8-2.7,1.2c-0.5,0.2-0.9,0.4-1.4,0.6c-0.5,0.2-1,0.3-1.5,0.5c-1,0.4-2.1,0.7-3.1,1
			c-2.2,0.4-4.4,1.1-6.7,1.3c-2.3,0.3-4.7,0.3-7.1,0.3c-2.4-0.2-4.7-0.4-7-0.9c-2.3-0.3-4.5-1.2-6.6-1.8c-1-0.4-2-0.9-3-1.3
			c-0.5-0.2-1-0.4-1.4-0.7c-0.5-0.3-0.9-0.5-1.3-0.8c-0.9-0.5-1.7-1-2.6-1.5c-0.8-0.6-1.5-1.1-2.2-1.6c-0.7-0.5-1.4-1-2-1.5
			c-0.6-0.5-1.2-1.1-1.7-1.6c-0.5-0.5-1-0.9-1.5-1.4c-0.4-0.5-0.8-0.9-1.1-1.3C1936.8,218.9,1936,218,1936,218z"/>
	</g>
</g>
</svg>
